<svg width="60" height="60" viewBox="0 0 60 60" fill="none" xmlns="http://www.w3.org/2000/svg">
<g clip-path="url(#clip0_348_1704)">
<rect width="60" height="60" fill="black"/>
<path d="M28.0781 43.8521C27.9107 43.852 27.7462 43.8086 27.6005 43.7261L19.3662 39.0616C19.2171 38.9771 19.093 38.8546 19.0068 38.7065C18.9205 38.5585 18.875 38.3902 18.875 38.2188V28.5313C18.875 28.3599 18.9205 28.1916 19.0068 28.0436C19.093 27.8955 19.2171 27.773 19.3662 27.6885L27.6005 23.024C27.7462 22.9415 27.9107 22.8982 28.0781 22.8982C28.2455 22.8982 28.41 22.9415 28.5557 23.024L36.7901 27.6885C36.9392 27.773 37.0632 27.8955 37.1495 28.0436C37.2358 28.1916 37.2812 28.3599 37.2812 28.5313V38.2188C37.2812 38.3902 37.2358 38.5585 37.1495 38.7065C37.0632 38.8546 36.9392 38.9771 36.7901 39.0616L28.5557 43.7261C28.4101 43.8086 28.2455 43.852 28.0781 43.8521V43.8521ZM20.8125 37.654L28.0781 41.7693L35.3438 37.654V29.0961L28.0781 24.9808L20.8125 29.0951V37.654Z" fill="white"/>
<path d="M42.1251 30.4688H40.1876V21.3461L32.9219 17.2308L25.1651 21.6241L24.21 19.9385L32.4443 15.274C32.59 15.1915 32.7545 15.1482 32.9219 15.1482C33.0893 15.1482 33.2538 15.1915 33.3995 15.274L41.6339 19.9385C41.783 20.023 41.907 20.1455 41.9933 20.2936C42.0796 20.4416 42.1251 20.6099 42.1251 20.7813V30.4688Z" fill="white"/>
</g>
<defs>
<clipPath id="clip0_348_1704">
<rect width="60" height="60" rx="30" fill="white"/>
</clipPath>
</defs>
</svg>
