<svg width="60" height="60" viewBox="0 0 60 60" fill="none" xmlns="http://www.w3.org/2000/svg">
<g clip-path="url(#clip0_348_1709)">
<rect width="60" height="60" fill="black"/>
<path d="M30.5 16.9375C27.8176 16.9375 25.1954 17.7329 22.9651 19.2232C20.7347 20.7135 18.9964 22.8316 17.9699 25.3099C16.9434 27.7881 16.6748 30.515 17.1981 33.1459C17.7214 35.7768 19.0131 38.1934 20.9099 40.0901C22.8066 41.9869 25.2232 43.2786 27.8541 43.8019C30.485 44.3252 33.2119 44.0566 35.6902 43.0301C38.1684 42.0036 40.2865 40.2653 41.7768 38.0349C43.2671 35.8046 44.0625 33.1824 44.0625 30.5C44.0584 26.9043 42.6282 23.457 40.0856 20.9144C37.543 18.3718 34.0957 16.9416 30.5 16.9375V16.9375ZM18.8944 30.8817L20.1906 31.3138L21.7813 33.6998V34.9427C21.7813 35.1996 21.8834 35.446 22.0651 35.6276L24.6875 38.25V40.5527C22.9805 39.5649 21.553 38.1588 20.5395 36.4669C19.526 34.7749 18.9598 32.8529 18.8944 30.8817V30.8817ZM30.5 42.125C29.6619 42.1233 28.8265 42.0307 28.0084 41.8489L28.5625 40.1875L30.3111 35.8165C30.3694 35.6706 30.3913 35.5126 30.3749 35.3564C30.3585 35.2001 30.3044 35.0501 30.2171 34.9194L28.8502 32.8686C28.7617 32.736 28.6419 32.6272 28.5013 32.552C28.3607 32.4768 28.2037 32.4375 28.0442 32.4375H23.2683L22.0593 30.623L24.1198 28.5625H25.6563V30.5H27.5938V27.8514L31.3409 21.293L29.6591 20.332L28.8309 21.7812H26.1745L25.1234 20.2032C26.5357 19.4579 28.0878 19.0152 29.6807 18.9033C31.2736 18.7913 32.8724 19.0127 34.375 19.5531V22.75C34.375 23.0069 34.4771 23.2533 34.6587 23.435C34.8404 23.6167 35.0868 23.7188 35.3438 23.7188H36.763C36.9224 23.7188 37.0794 23.6794 37.22 23.6042C37.3606 23.529 37.4805 23.4203 37.569 23.2877L38.4186 22.0128C39.525 23.0448 40.42 24.2823 41.0536 25.6562H37.1069C36.883 25.6564 36.6661 25.7341 36.493 25.876C36.3199 26.018 36.2014 26.2156 36.1575 26.4351L35.4571 30.7654C35.424 30.9693 35.4568 31.1784 35.5509 31.3623C35.6451 31.5462 35.7955 31.6951 35.9802 31.7875L39.2188 33.4062L39.8823 37.3355C38.8071 38.8173 37.3965 40.0237 35.7659 40.8561C34.1353 41.6885 32.3308 42.1233 30.5 42.125V42.125Z" fill="white"/>
</g>
<defs>
<clipPath id="clip0_348_1709">
<rect width="60" height="60" rx="30" fill="white"/>
</clipPath>
</defs>
</svg>
