<svg width="490" height="490" viewBox="0 0 490 490" fill="none" xmlns="http://www.w3.org/2000/svg">
<circle cx="245.242" cy="245.744" r="215.456" stroke="white" stroke-width="1.44118"/>
<rect x="455.002" y="240.139" width="10.6944" height="10.6944" rx="1.94444" fill="black"/>
<rect x="24.3076" y="240.139" width="10.6944" height="10.6944" rx="1.94444" fill="black"/>
<rect x="436.896" y="159.811" width="10.6944" height="10.6944" rx="1.94444" transform="rotate(-22.5 436.896 159.811)" fill="black"/>
<rect x="38.9863" y="324.631" width="10.6944" height="10.6944" rx="1.94444" transform="rotate(-22.5 38.9863 324.631)" fill="black"/>
<rect x="389.429" y="92.5259" width="10.6944" height="10.6944" rx="1.94444" transform="rotate(-45 389.429 92.5259)" fill="black"/>
<rect x="84.8818" y="397.073" width="10.6944" height="10.6944" rx="1.94444" transform="rotate(-45 84.8818 397.073)" fill="black"/>
<rect x="319.825" y="48.5278" width="10.6944" height="10.6944" rx="1.94444" transform="rotate(-67.5 319.825 48.5278)" fill="black"/>
<rect x="155.005" y="446.437" width="10.6944" height="10.6944" rx="1.94444" transform="rotate(-67.5 155.005 446.437)" fill="black"/>
<rect x="159.353" y="52.6206" width="10.6944" height="10.6944" rx="1.94444" transform="rotate(-112.5 159.353 52.6206)" fill="black"/>
<rect x="323.173" y="452.53" width="10.6944" height="10.6944" rx="1.94444" transform="rotate(-112.5 323.173 452.53)" fill="black"/>
<rect x="92.0684" y="101.088" width="10.6944" height="10.6944" rx="1.94444" transform="rotate(-135 92.0684 101.088)" fill="black"/>
<rect x="396.615" y="405.635" width="10.6944" height="10.6944" rx="1.94444" transform="rotate(-135 396.615 405.635)" fill="black"/>
<rect x="48.0713" y="172.692" width="10.6944" height="10.6944" rx="1.94444" transform="rotate(-157.5 48.0713 172.692)" fill="black"/>
<rect x="446.98" y="334.511" width="10.6944" height="10.6944" rx="1.94444" transform="rotate(-157.5 446.98 334.511)" fill="black"/>
<rect x="238.196" y="24.3057" width="10.6944" height="10.6944" rx="1.94444" fill="black"/>
<rect x="238.196" y="455.972" width="10.6944" height="10.6944" rx="1.94444" fill="black"/>
</svg>
