<svg width="60" height="60" viewBox="0 0 60 60" fill="none" xmlns="http://www.w3.org/2000/svg">
<g clip-path="url(#clip0_348_1713)">
<rect width="60" height="60" fill="black"/>
<path d="M43.1543 41.0957L38.2258 36.1672C39.8175 34.1358 40.6792 31.6277 40.6719 29.0469C40.6719 26.7477 39.9901 24.5001 38.7127 22.5884C37.4353 20.6767 35.6198 19.1866 33.4956 18.3068C31.3714 17.4269 29.034 17.1967 26.779 17.6453C24.5239 18.0938 22.4525 19.201 20.8268 20.8268C19.201 22.4525 18.0938 24.5239 17.6453 26.779C17.1967 29.034 17.4269 31.3714 18.3068 33.4956C19.1866 35.6198 20.6767 37.4353 22.5884 38.7127C24.5001 39.9901 26.7477 40.6719 29.0469 40.6719C31.6277 40.6792 34.1358 39.8175 36.1672 38.2258L41.0957 43.1543C41.3699 43.425 41.7397 43.5767 42.125 43.5767C42.5103 43.5767 42.8801 43.425 43.1543 43.1543C43.2898 43.0193 43.3973 42.8589 43.4706 42.6823C43.5439 42.5056 43.5817 42.3163 43.5817 42.125C43.5817 41.9338 43.5439 41.7444 43.4706 41.5678C43.3973 41.3911 43.2898 41.2307 43.1543 41.0957V41.0957ZM20.3281 29.0469C20.3281 27.3225 20.8395 25.6368 21.7975 24.203C22.7555 22.7692 24.1172 21.6517 25.7104 20.9918C27.3035 20.3319 29.0566 20.1592 30.7478 20.4957C32.4391 20.8321 33.9926 21.6625 35.212 22.8818C36.4313 24.1011 37.2617 25.6547 37.5981 27.3459C37.9345 29.0372 37.7619 30.7903 37.102 32.3834C36.4421 33.9765 35.3245 35.3382 33.8908 36.2963C32.457 37.2543 30.7713 37.7656 29.0469 37.7656C26.7355 37.7624 24.5197 36.8428 22.8853 35.2084C21.2509 33.574 20.3313 31.3583 20.3281 29.0469Z" fill="white"/>
</g>
<defs>
<clipPath id="clip0_348_1713">
<rect width="60" height="60" rx="30" fill="white"/>
</clipPath>
</defs>
</svg>
