<svg width="25" height="25" viewBox="0 0 25 25" fill="none" xmlns="http://www.w3.org/2000/svg">
<rect x="0.416667" y="0.416667" width="24.1667" height="24.1667" rx="1.25" fill="white" stroke="black" stroke-width="0.833333"/>
<path d="M13.1222 6.97778L10.0445 10.0556C9.83892 10.2611 9.72225 10.5444 9.72225 10.8389V16.3889C9.72225 17 10.2222 17.5 10.8334 17.5H15.8334C16.2778 17.5 16.6778 17.2333 16.8556 16.8278L18.6667 12.6C19.1334 11.5 18.3278 10.2778 17.1334 10.2778H13.9945L14.5222 7.73333C14.5778 7.45556 14.4945 7.17222 14.2945 6.97222C13.9667 6.65 13.4445 6.65 13.1222 6.97778ZM7.50003 17.5C8.11114 17.5 8.61114 17 8.61114 16.3889V11.9444C8.61114 11.3333 8.11114 10.8333 7.50003 10.8333C6.88892 10.8333 6.38892 11.3333 6.38892 11.9444V16.3889C6.38892 17 6.88892 17.5 7.50003 17.5Z" fill="black"/>
</svg>
