<svg width="25" height="25" viewBox="0 0 25 25" fill="none" xmlns="http://www.w3.org/2000/svg">
<rect x="0.416667" y="0.416667" width="24.1667" height="24.1667" rx="1.25" fill="white" stroke="black" stroke-width="0.833333"/>
<path d="M12.7777 9.16667C10.0166 9.16667 7.22217 10.0256 7.22217 11.6667V13.8889C7.22217 15.53 10.0166 16.3889 12.7777 16.3889C15.5388 16.3889 18.3333 15.53 18.3333 13.8889V11.6667C18.3333 10.0256 15.5388 9.16667 12.7777 9.16667ZM8.33328 13.8889V13.2239C8.68514 13.4232 9.05772 13.5834 9.44439 13.7017V14.7467C8.7155 14.4611 8.33328 14.1211 8.33328 13.8889ZM14.9999 13.9711V15.0661C14.5183 15.1656 13.9627 15.2383 13.3333 15.265V14.1539C13.8924 14.1316 14.4493 14.0706 14.9999 13.9711ZM12.2222 15.2656C11.6622 15.2441 11.1048 15.1776 10.5555 15.0667V13.9717C11.0883 14.0683 11.6511 14.1311 12.2222 14.155V15.2656ZM16.1111 14.7467V13.7017C16.4978 13.5836 16.8704 13.4234 17.2222 13.2239V13.8889C17.2222 14.1211 16.8405 14.4611 16.1111 14.7467ZM12.7777 13.0556C9.90161 13.0556 8.33328 12.1383 8.33328 11.6667C8.33328 11.195 9.90161 10.2778 12.7777 10.2778C15.6538 10.2778 17.2222 11.195 17.2222 11.6667C17.2222 12.1383 15.6538 13.0556 12.7777 13.0556Z" fill="black"/>
</svg>
