<svg width="25" height="25" viewBox="0 0 25 25" fill="none" xmlns="http://www.w3.org/2000/svg">
<rect x="0.416667" y="0.416667" width="24.1667" height="24.1667" rx="2.08333" fill="white" stroke="black" stroke-width="0.833333"/>
<path d="M13.8333 7.5H10.6111C10.3166 7.5 10.0333 7.61667 9.82217 7.82778L7.54439 10.1056C7.33883 10.3111 7.22217 10.5944 7.22217 10.8889V14.1111C7.22217 14.4056 7.33883 14.6889 7.54995 14.8944L9.82772 17.1722C10.0333 17.3833 10.3166 17.5 10.6111 17.5H13.8333C14.1277 17.5 14.4111 17.3833 14.6166 17.1722L16.8944 14.8944C17.1055 14.6889 17.2222 14.4056 17.2222 14.1111V10.8889C17.2222 10.5944 17.1055 10.3111 16.8944 10.1056L14.6166 7.82778C14.4111 7.61667 14.1277 7.5 13.8333 7.5ZM14.1888 14.4667C14.1374 14.5182 14.0764 14.559 14.0092 14.5869C13.942 14.6148 13.8699 14.6291 13.7972 14.6291C13.7244 14.6291 13.6524 14.6148 13.5852 14.5869C13.5179 14.559 13.4569 14.5182 13.4055 14.4667L12.2222 13.2833L11.0444 14.4611C10.993 14.5125 10.9319 14.5533 10.8647 14.5812C10.7975 14.609 10.7255 14.6233 10.6527 14.6233C10.58 14.6233 10.508 14.609 10.4408 14.5812C10.3736 14.5533 10.3125 14.5125 10.2611 14.4611C10.2096 14.4097 10.1688 14.3486 10.141 14.2814C10.1132 14.2142 10.0988 14.1422 10.0988 14.0694C10.0988 13.9967 10.1132 13.9247 10.141 13.8575C10.1688 13.7903 10.2096 13.7292 10.2611 13.6778L11.4388 12.5L10.2555 11.3222C10.2041 11.2708 10.1633 11.2097 10.1354 11.1425C10.1076 11.0753 10.0933 11.0033 10.0933 10.9306C10.0933 10.8578 10.1076 10.7858 10.1354 10.7186C10.1633 10.6514 10.2041 10.5903 10.2555 10.5389C10.3069 10.4875 10.368 10.4467 10.4352 10.4188C10.5024 10.391 10.5744 10.3767 10.6472 10.3767C10.7199 10.3767 10.7919 10.391 10.8591 10.4188C10.9263 10.4467 10.9874 10.4875 11.0388 10.5389L12.2222 11.7167L13.3999 10.5389C13.4514 10.4875 13.5124 10.4467 13.5796 10.4188C13.6468 10.391 13.7189 10.3767 13.7916 10.3767C13.8644 10.3767 13.9364 10.391 14.0036 10.4188C14.0708 10.4467 14.1318 10.4875 14.1833 10.5389C14.2347 10.5903 14.2755 10.6514 14.3034 10.7186C14.3312 10.7858 14.3455 10.8578 14.3455 10.9306C14.3455 11.0033 14.3312 11.0753 14.3034 11.1425C14.2755 11.2097 14.2347 11.2708 14.1833 11.3222L13.0055 12.5L14.1833 13.6778C14.4055 13.8944 14.4055 14.25 14.1888 14.4667Z" fill="black"/>
</svg>
