<svg width="88" height="133" viewBox="0 0 88 133" fill="none" xmlns="http://www.w3.org/2000/svg">
<line x1="2.47322" y1="131.945" x2="27.4732" y2="61.9454" stroke="#DF5E27" stroke-width="3.24245"/>
<rect x="14.5" y="1.5" width="72" height="72" rx="18.5" fill="white" stroke="#DF5E27" stroke-width="3"/>
<path d="M51.0501 51.1833C50.5899 51.1834 50.1369 51.0684 49.7325 50.8487C49.3281 50.629 48.9852 50.3115 48.7349 49.9253C48.4846 49.5391 48.335 49.0964 48.2997 48.6375C48.2643 48.1787 48.3444 47.7182 48.5326 47.2983L45.1588 45.0482C44.6828 45.546 44.0374 45.8472 43.3501 45.8922C42.6628 45.9372 41.9837 45.7227 41.4468 45.2913C40.91 44.8598 40.5545 44.2427 40.4506 43.5618C40.3467 42.8809 40.5019 42.1859 40.8857 41.6139C41.2694 41.042 41.8537 40.6348 42.5231 40.4727C43.1925 40.3107 43.8984 40.4056 44.5012 40.7388C45.104 41.072 45.5599 41.6191 45.7789 42.2721C45.9979 42.9251 45.9639 43.6365 45.6838 44.2657L49.0613 46.5157C49.1648 46.409 49.2764 46.3103 49.3951 46.2207L43.9825 35.3969C43.3221 35.6015 42.609 35.5508 41.9841 35.255C41.3592 34.9592 40.8681 34.4397 40.6077 33.7992C40.3473 33.1587 40.3367 32.4439 40.5779 31.796C40.8191 31.148 41.2945 30.6142 41.9103 30.2999C42.5261 29.9855 43.2374 29.9137 43.9036 30.0985C44.5698 30.2832 45.1425 30.7112 45.5084 31.2978C45.8744 31.8844 46.0069 32.5869 45.8799 33.2665C45.7529 33.9461 45.3756 34.5533 44.8225 34.9682L50.2351 45.792C50.3313 45.762 50.4301 45.737 50.5288 45.7182V40.5582C49.8991 40.4374 49.3312 40.101 48.9227 39.6067C48.5142 39.1124 48.2908 38.4913 48.2908 37.8501C48.2908 37.2089 48.5142 36.5877 48.9227 36.0935C49.3312 35.5992 49.8991 35.2627 50.5288 35.1419V30.2794C49.851 30.1487 49.2468 29.7684 48.8358 29.2138C48.4247 28.6592 48.2366 27.9706 48.3086 27.2841C48.3806 26.5975 48.7076 25.9629 49.2248 25.5057C49.7421 25.0485 50.412 24.802 51.1022 24.8148C51.7924 24.8276 52.4527 25.0988 52.9527 25.5748C53.4526 26.0509 53.7558 26.6972 53.8023 27.3859C53.8488 28.0747 53.6353 28.7559 53.204 29.2948C52.7726 29.8338 52.1548 30.1914 51.4726 30.2969V35.1294C52.1235 35.2293 52.7172 35.559 53.1461 36.0587C53.5751 36.5584 53.8109 37.1953 53.8109 37.8538C53.8109 38.5124 53.5751 39.1492 53.1461 39.649C52.7172 40.1487 52.1235 40.4783 51.4726 40.5782V45.6995C51.5751 45.7157 51.6776 45.737 51.7776 45.7645L57.1776 34.9669C56.6272 34.5525 56.2522 33.9467 56.1268 33.2692C56.0013 32.5916 56.1346 31.8917 56.5001 31.3077C56.8657 30.7236 57.437 30.2979 58.1012 30.1147C58.7654 29.9314 59.4742 30.0039 60.0875 30.3179C60.7009 30.6319 61.1741 31.1645 61.4138 31.8104C61.6536 32.4564 61.6423 33.1688 61.3822 33.8069C61.1222 34.4449 60.6323 34.9623 60.0094 35.2567C59.3864 35.5511 58.6757 35.6011 58.0176 35.3969L52.6313 46.1682C52.7563 46.2557 52.8738 46.3532 52.9813 46.4595L56.2514 44.2395C55.9501 43.6172 55.8932 42.9046 56.0919 42.2424C56.2906 41.5802 56.7305 41.0167 57.3247 40.6632C57.9188 40.3096 58.624 40.1919 59.3007 40.3331C59.9775 40.4743 60.5767 40.8643 60.9798 41.426C61.383 41.9876 61.5608 42.6801 61.478 43.3665C61.3953 44.0529 61.0581 44.6833 60.5331 45.1331C60.0081 45.5829 59.3334 45.8194 58.6424 45.7958C57.9515 45.7722 57.2945 45.4903 56.8014 45.0057L53.5326 47.227C53.7355 47.6473 53.8284 48.1122 53.8026 48.5782C53.7768 49.0443 53.6331 49.4961 53.385 49.8914C53.137 50.2867 52.7926 50.6127 52.3842 50.8386C51.9758 51.0645 51.5168 51.1831 51.0501 51.1833V51.1833ZM51.0001 52.9995C42.7163 52.9995 36 46.2845 36 37.9995C36.0002 34.0213 37.5807 30.2061 40.3938 27.3931C46.2513 21.5356 55.7489 21.5356 61.6064 27.3931C67.4639 33.2507 67.4652 42.7482 61.6064 48.6058C60.2168 50.0031 58.5639 51.1109 56.7433 51.8651C54.9228 52.6193 52.9707 53.0049 51.0001 52.9995V52.9995ZM51.0001 23.9431C43.2375 23.9431 36.9438 30.2369 36.9438 37.9995C36.9438 41.727 38.425 45.3032 41.0613 47.9383C46.5313 53.447 55.4301 53.4795 60.9389 48.0095C66.4477 42.5395 66.4789 33.6394 61.0101 28.1307C59.7054 26.8001 58.1475 25.7442 56.4284 25.025C54.7093 24.3059 52.8636 23.938 51.0001 23.9431V23.9431Z" fill="#DF5E27"/>
</svg>
