<svg width="60" height="60" viewBox="0 0 60 60" fill="none" xmlns="http://www.w3.org/2000/svg">
<g clip-path="url(#clip0_348_1618)">
<rect width="60" height="60" fill="black"/>
<path d="M23.7315 21.1871L21.4065 18.875L19.5853 20.6963L21.8973 23.0084L23.7315 21.1871ZM20.1665 28.498H16.2915V31.0813H20.1665V28.498ZM31.7915 15.6459H29.2082V19.4563H31.7915V15.6459V15.6459ZM41.4144 20.6963L39.5932 18.875L37.2811 21.1871L39.1023 23.0084L41.4144 20.6963ZM37.2682 38.3921L39.5803 40.7171L41.4015 38.8959L39.0765 36.5838L37.2682 38.3921ZM40.8332 28.498V31.0813H44.7082V28.498H40.8332ZM30.4998 22.0396C26.2244 22.0396 22.7498 25.5142 22.7498 29.7896C22.7498 34.065 26.2244 37.5396 30.4998 37.5396C34.7753 37.5396 38.2498 34.065 38.2498 29.7896C38.2498 25.5142 34.7753 22.0396 30.4998 22.0396ZM29.2082 43.9334H31.7915V40.123H29.2082V43.9334ZM19.5853 38.883L21.4065 40.7042L23.7186 38.3792L21.8973 36.558L19.5853 38.883Z" fill="white"/>
</g>
<defs>
<clipPath id="clip0_348_1618">
<rect width="60" height="60" rx="30" fill="white"/>
</clipPath>
</defs>
</svg>
