<svg width="256" height="48" viewBox="0 0 256 48" fill="none" xmlns="http://www.w3.org/2000/svg">
<g clip-path="url(#clip0_205_1208)">
<path d="M38.4893 29.2712L44.1039 32.5128V38.9972L44.103 38.9965L38.4875 42.2384V35.7554L32.8729 32.5138V26.0296L32.8738 26.0302L38.4893 22.7881L38.4893 29.2712Z" fill="#FCD581"/>
<path d="M24.456 24.4037L18.8415 27.6452L13.226 24.4031L13.2269 24.4027L13.2269 17.9185L18.8415 21.16L24.456 17.9185L30.0715 21.1606L30.0706 21.161V27.6452L24.456 24.4037Z" fill="#FCD581"/>
<path d="M35.6866 14.6837L35.6866 8.20063L41.3021 4.9585L41.302 4.95957L46.9175 8.20169L41.3029 11.4433V17.9264L35.6874 21.1685L35.6875 21.1674L30.072 17.9253L35.6866 14.6837Z" fill="#FCD581"/>
</g>
<path d="M65.1135 34V13.7005H77.9022V16.5425H68.2454V22.3713H77.0902V25.2132H68.2454V31.1581H78.0472V34H65.1135ZM81.3123 34V13.7005H93.84V16.5425H84.4442V22.4003H93.086V25.2422H84.4442V34H81.3123ZM98.715 34L95.7281 13.7005H98.86L101.296 31.8831H101.76L104.892 13.7005H110.373L113.505 31.8831H113.969L116.376 13.7005H119.507L116.521 34H111.04L107.85 15.5565H107.386L104.225 34H98.715ZM129.795 34V13.7005H137.857C139.095 13.7005 140.196 13.9519 141.163 14.4545C142.149 14.9378 142.913 15.6338 143.454 16.5425C144.015 17.4318 144.295 18.5047 144.295 19.7614V20.1384C144.295 21.395 144.005 22.4776 143.425 23.3863C142.864 24.2949 142.101 24.9909 141.134 25.4742C140.167 25.9575 139.075 26.1992 137.857 26.1992H132.927V34H129.795ZM132.927 23.3573H137.538C138.64 23.3573 139.52 23.0673 140.177 22.4873C140.834 21.9073 141.163 21.1147 141.163 20.1094V19.8194C141.163 18.7947 140.834 17.9924 140.177 17.4124C139.52 16.8324 138.64 16.5425 137.538 16.5425H132.927V23.3573ZM147.356 34V19.7034H150.285V21.3853H150.749C150.98 20.786 151.348 20.351 151.85 20.0804C152.372 19.7904 153.01 19.6454 153.764 19.6454H155.475V22.3423H153.648C152.682 22.3423 151.889 22.613 151.27 23.1543C150.652 23.6763 150.343 24.4882 150.343 25.5902V34H147.356ZM164.759 34.406C163.329 34.406 162.053 34.116 160.931 33.536C159.829 32.9367 158.959 32.0861 158.321 30.9841C157.683 29.8821 157.364 28.5771 157.364 27.0692V26.6342C157.364 25.1262 157.683 23.8309 158.321 22.7483C158.959 21.6463 159.829 20.7957 160.931 20.1964C162.053 19.597 163.329 19.2974 164.759 19.2974C166.19 19.2974 167.466 19.597 168.587 20.1964C169.708 20.7957 170.588 21.6463 171.226 22.7483C171.864 23.8309 172.183 25.1262 172.183 26.6342V27.0692C172.183 28.5771 171.864 29.8821 171.226 30.9841C170.588 32.0861 169.708 32.9367 168.587 33.536C167.466 34.116 166.19 34.406 164.759 34.406ZM164.759 31.7381C166.074 31.7381 167.137 31.3224 167.949 30.4911C168.78 29.6404 169.196 28.4708 169.196 26.9822V26.7212C169.196 25.2326 168.79 24.0726 167.978 23.2413C167.166 22.3906 166.093 21.9653 164.759 21.9653C163.464 21.9653 162.401 22.3906 161.569 23.2413C160.757 24.0726 160.351 25.2326 160.351 26.7212V26.9822C160.351 28.4708 160.757 29.6404 161.569 30.4911C162.401 31.3224 163.464 31.7381 164.759 31.7381ZM173.176 39.7998V37.2189H175.119C175.679 37.2189 175.96 36.9289 175.96 36.3489V19.7034H178.947V36.9289C178.947 37.7989 178.695 38.4949 178.193 39.0169C177.69 39.5389 176.984 39.7998 176.076 39.7998H173.176ZM177.468 17.7604C176.888 17.7604 176.395 17.5768 175.989 17.2094C175.602 16.8228 175.409 16.3298 175.409 15.7305C175.409 15.1312 175.602 14.6478 175.989 14.2805C176.395 13.8939 176.888 13.7005 177.468 13.7005C178.067 13.7005 178.56 13.8939 178.947 14.2805C179.333 14.6478 179.527 15.1312 179.527 15.7305C179.527 16.3298 179.333 16.8228 178.947 17.2094C178.56 17.5768 178.067 17.7604 177.468 17.7604ZM189.932 34.406C188.482 34.406 187.216 34.1063 186.133 33.507C185.05 32.8884 184.2 32.0281 183.581 30.9261C182.982 29.8048 182.682 28.5095 182.682 27.0402V26.6922C182.682 25.2036 182.982 23.9083 183.581 22.8063C184.18 21.685 185.012 20.8247 186.075 20.2254C187.158 19.6067 188.405 19.2974 189.816 19.2974C191.189 19.2974 192.387 19.6067 193.412 20.2254C194.456 20.8247 195.268 21.6657 195.848 22.7483C196.428 23.8309 196.718 25.0972 196.718 26.5472V27.6782H185.727C185.766 28.9348 186.181 29.9401 186.974 30.6941C187.786 31.4287 188.791 31.7961 189.99 31.7961C191.111 31.7961 191.952 31.5447 192.513 31.0421C193.093 30.5394 193.537 29.9594 193.847 29.3021L196.312 30.5781C196.041 31.1194 195.645 31.6897 195.123 32.289C194.62 32.8884 193.953 33.391 193.122 33.797C192.291 34.203 191.227 34.406 189.932 34.406ZM185.756 25.3872H193.673C193.595 24.3046 193.209 23.4636 192.513 22.8643C191.817 22.2456 190.908 21.9363 189.787 21.9363C188.666 21.9363 187.747 22.2456 187.032 22.8643C186.336 23.4636 185.911 24.3046 185.756 25.3872ZM206.954 34.406C205.581 34.406 204.334 34.116 203.213 33.536C202.111 32.956 201.232 32.115 200.574 31.0131C199.936 29.9111 199.617 28.5868 199.617 27.0402V26.6632C199.617 25.1166 199.936 23.8019 200.574 22.7193C201.232 21.6173 202.111 20.7763 203.213 20.1964C204.334 19.597 205.581 19.2974 206.954 19.2974C208.327 19.2974 209.496 19.5487 210.463 20.0514C211.43 20.554 212.203 21.221 212.783 22.0523C213.382 22.8836 213.769 23.8019 213.943 24.8072L211.043 25.4162C210.946 24.7782 210.743 24.1983 210.434 23.6763C210.125 23.1543 209.69 22.7386 209.129 22.4293C208.568 22.12 207.863 21.9653 207.012 21.9653C206.181 21.9653 205.427 22.1586 204.75 22.5453C204.093 22.9126 203.571 23.4539 203.184 24.1693C202.797 24.8652 202.604 25.7159 202.604 26.7212V26.9822C202.604 27.9875 202.797 28.8478 203.184 29.5631C203.571 30.2784 204.093 30.8198 204.75 31.1871C205.427 31.5544 206.181 31.7381 207.012 31.7381C208.269 31.7381 209.226 31.4191 209.883 30.7811C210.54 30.1238 210.956 29.2925 211.13 28.2871L214.03 28.9541C213.798 29.9401 213.382 30.8487 212.783 31.6801C212.203 32.5114 211.43 33.1784 210.463 33.681C209.496 34.1643 208.327 34.406 206.954 34.406ZM222.302 34C221.432 34 220.736 33.739 220.214 33.217C219.711 32.695 219.46 31.9991 219.46 31.1291V22.2263H215.516V19.7034H219.46V14.9765H222.447V19.7034H226.71V22.2263H222.447V30.6071C222.447 31.1871 222.717 31.4771 223.259 31.4771H226.246V34H222.302ZM236.076 34.406C234.259 34.406 232.751 34 231.553 33.188C230.354 32.376 229.619 31.1484 229.349 29.5051L232.133 28.8381C232.287 29.6308 232.548 30.2591 232.916 30.7231C233.283 31.1871 233.737 31.5157 234.279 31.7091C234.839 31.9024 235.439 31.9991 236.076 31.9991C237.024 31.9991 237.749 31.8154 238.251 31.4481C238.773 31.0807 239.034 30.6071 239.034 30.0271C239.034 29.4471 238.793 29.0218 238.309 28.7511C237.826 28.4805 237.111 28.2582 236.163 28.0842L235.178 27.9102C234.211 27.7362 233.331 27.4848 232.539 27.1562C231.746 26.8275 231.118 26.3732 230.654 25.7932C230.19 25.2132 229.958 24.4689 229.958 23.5603C229.958 22.207 230.46 21.163 231.466 20.4284C232.471 19.6744 233.805 19.2974 235.468 19.2974C237.072 19.2974 238.387 19.6647 239.411 20.3994C240.455 21.1147 241.132 22.091 241.441 23.3283L238.657 24.1113C238.483 23.2413 238.116 22.6323 237.555 22.2843C236.995 21.917 236.299 21.7333 235.468 21.7333C234.656 21.7333 234.018 21.888 233.554 22.1973C233.09 22.4873 232.858 22.903 232.858 23.4443C232.858 24.0243 233.08 24.4496 233.525 24.7202C233.989 24.9909 234.607 25.1939 235.381 25.3292L236.395 25.5032C237.42 25.6772 238.358 25.9189 239.208 26.2282C240.059 26.5375 240.726 26.9822 241.209 27.5622C241.712 28.1422 241.963 28.9155 241.963 29.8821C241.963 31.3127 241.432 32.4244 240.368 33.217C239.305 34.0097 237.874 34.406 236.076 34.406Z" fill="black"/>
<defs>
<clipPath id="clip0_205_1208">
<rect width="33.9965" height="37.7362" fill="white" transform="translate(13 4.63184)"/>
</clipPath>
</defs>
</svg>
