<svg width="146" height="26" viewBox="0 0 146 26" fill="none" xmlns="http://www.w3.org/2000/svg">
<circle cx="12.9873" cy="13" r="12.6953" fill="white"/>
<g clip-path="url(#clip0_362_2514)">
<path d="M15.913 16.0069L18.601 17.5588V20.6633L18.6006 20.6629L15.9121 22.215V19.1112L13.2241 17.5593V14.455L13.2245 14.4553L15.913 12.9031L15.913 16.0069Z" fill="#FCD581"/>
<path d="M9.19481 13.6769L6.50682 15.2288L3.81836 13.6766L3.81883 13.6764L3.81883 10.572L6.50682 12.1239L9.19481 10.572L11.8833 12.1242L11.8828 12.1244V15.2288L9.19481 13.6769Z" fill="#FCD581"/>
<path d="M14.5718 9.0232L14.5718 5.91938L17.2602 4.36719L17.2602 4.3677L19.9487 5.91988L17.2607 7.4718V10.5756L14.5722 12.1278L14.5723 12.1273L11.8838 10.5751L14.5718 9.0232Z" fill="#FCD581"/>
</g>
<path d="M36.9658 19V6.69576H44.7174V8.41835H38.8641V11.9514H44.2253V13.674H38.8641V17.2774H44.8053V19H36.9658ZM46.7844 19V6.69576H54.3779V8.41835H48.6828V11.969H53.9209V13.6916H48.6828V19H46.7844ZM57.3329 19L55.5224 6.69576H57.4207L58.8973 17.7168H59.1785L61.0769 6.69576H64.399L66.2974 17.7168H66.5786L68.0375 6.69576H69.9359L68.1254 19H64.8033L62.8698 7.82072H62.5885L60.6726 19H57.3329ZM76.1718 19V6.69576H81.0583C81.8083 6.69576 82.4763 6.8481 83.0622 7.15278C83.6598 7.44573 84.1227 7.86759 84.4508 8.41835C84.7906 8.9574 84.9605 9.60776 84.9605 10.3695V10.598C84.9605 11.3597 84.7848 12.0159 84.4332 12.5666C84.0934 13.1174 83.6305 13.5393 83.0446 13.8322C82.4587 14.1252 81.7966 14.2717 81.0583 14.2717H78.0702V19H76.1718ZM78.0702 12.5491H80.865C81.5329 12.5491 82.0661 12.3733 82.4645 12.0217C82.863 11.6702 83.0622 11.1897 83.0622 10.5804V10.4046C83.0622 9.78354 82.863 9.29723 82.4645 8.94568C82.0661 8.59413 81.5329 8.41835 80.865 8.41835H78.0702V12.5491ZM86.8157 19V10.3343H88.591V11.3538H88.8722C89.0128 10.9905 89.2355 10.7269 89.5402 10.5628C89.8566 10.387 90.2433 10.2991 90.7003 10.2991H91.7373V11.9339H90.63C90.044 11.9339 89.5636 12.0979 89.1886 12.426C88.8136 12.7424 88.6261 13.2346 88.6261 13.9025V19H86.8157ZM97.3646 19.2461C96.4975 19.2461 95.724 19.0703 95.0444 18.7188C94.3764 18.3555 93.8491 17.8399 93.4624 17.1719C93.0757 16.504 92.8824 15.713 92.8824 14.799V14.5353C92.8824 13.6213 93.0757 12.8362 93.4624 12.1799C93.8491 11.512 94.3764 10.9964 95.0444 10.6331C95.724 10.2699 96.4975 10.0882 97.3646 10.0882C98.2318 10.0882 99.0052 10.2699 99.6848 10.6331C100.365 10.9964 100.898 11.512 101.284 12.1799C101.671 12.8362 101.864 13.6213 101.864 14.5353V14.799C101.864 15.713 101.671 16.504 101.284 17.1719C100.898 17.8399 100.365 18.3555 99.6848 18.7188C99.0052 19.0703 98.2318 19.2461 97.3646 19.2461ZM97.3646 17.629C98.1615 17.629 98.806 17.377 99.2981 16.8731C99.802 16.3575 100.054 15.6486 100.054 14.7462V14.5881C100.054 13.6857 99.8079 12.9826 99.3157 12.4788C98.8235 11.9631 98.1732 11.7053 97.3646 11.7053C96.5795 11.7053 95.935 11.9631 95.4311 12.4788C94.9389 12.9826 94.6928 13.6857 94.6928 14.5881V14.7462C94.6928 15.6486 94.9389 16.3575 95.4311 16.8731C95.935 17.377 96.5795 17.629 97.3646 17.629ZM102.466 22.5155V20.9511H103.644C103.984 20.9511 104.154 20.7753 104.154 20.4238V10.3343H105.964V20.7753C105.964 21.3027 105.812 21.7245 105.507 22.0409C105.202 22.3573 104.775 22.5155 104.224 22.5155H102.466ZM105.068 9.15661C104.716 9.15661 104.417 9.04529 104.171 8.82264C103.937 8.58827 103.82 8.28945 103.82 7.92619C103.82 7.56292 103.937 7.26996 104.171 7.04731C104.417 6.81295 104.716 6.69576 105.068 6.69576C105.431 6.69576 105.73 6.81295 105.964 7.04731C106.198 7.26996 106.316 7.56292 106.316 7.92619C106.316 8.28945 106.198 8.58827 105.964 8.82264C105.73 9.04529 105.431 9.15661 105.068 9.15661ZM112.623 19.2461C111.744 19.2461 110.976 19.0645 110.32 18.7012C109.664 18.3262 109.148 17.8047 108.773 17.1368C108.41 16.4571 108.228 15.672 108.228 14.7814V14.5705C108.228 13.6682 108.41 12.883 108.773 12.2151C109.136 11.5354 109.64 11.014 110.285 10.6507C110.941 10.2757 111.697 10.0882 112.552 10.0882C113.384 10.0882 114.111 10.2757 114.732 10.6507C115.365 11.014 115.857 11.5237 116.208 12.1799C116.56 12.8362 116.736 13.6037 116.736 14.4826V15.1681H110.074C110.097 15.9298 110.349 16.5392 110.83 16.9962C111.322 17.4415 111.931 17.6641 112.658 17.6641C113.338 17.6641 113.847 17.5118 114.187 17.2071C114.539 16.9024 114.808 16.5509 114.996 16.1524L116.49 16.9259C116.326 17.254 116.085 17.5997 115.769 17.9629C115.464 18.3262 115.06 18.6309 114.556 18.877C114.052 19.123 113.408 19.2461 112.623 19.2461ZM110.092 13.7795H114.89C114.843 13.1233 114.609 12.6135 114.187 12.2502C113.765 11.8753 113.214 11.6878 112.535 11.6878C111.855 11.6878 111.299 11.8753 110.865 12.2502C110.443 12.6135 110.185 13.1233 110.092 13.7795ZM122.94 19.2461C122.108 19.2461 121.353 19.0703 120.673 18.7188C120.005 18.3672 119.472 17.8575 119.073 17.1895C118.687 16.5216 118.493 15.7189 118.493 14.7814V14.5529C118.493 13.6154 118.687 12.8186 119.073 12.1624C119.472 11.4944 120.005 10.9847 120.673 10.6331C121.353 10.2699 122.108 10.0882 122.94 10.0882C123.772 10.0882 124.481 10.2406 125.067 10.5452C125.653 10.8499 126.122 11.2542 126.473 11.7581C126.837 12.262 127.071 12.8186 127.177 13.4279L125.419 13.7971C125.36 13.4104 125.237 13.0588 125.05 12.7424C124.862 12.426 124.599 12.1741 124.259 11.9866C123.919 11.7991 123.491 11.7053 122.976 11.7053C122.472 11.7053 122.015 11.8225 121.605 12.0569C121.206 12.2795 120.89 12.6077 120.655 13.0412C120.421 13.4631 120.304 13.9787 120.304 14.5881V14.7462C120.304 15.3556 120.421 15.8771 120.655 16.3106C120.89 16.7442 121.206 17.0723 121.605 17.295C122.015 17.5176 122.472 17.629 122.976 17.629C123.737 17.629 124.317 17.4356 124.716 17.0489C125.114 16.6505 125.366 16.1466 125.472 15.5372L127.229 15.9415C127.089 16.5392 126.837 17.0899 126.473 17.5938C126.122 18.0977 125.653 18.502 125.067 18.8066C124.481 19.0996 123.772 19.2461 122.94 19.2461ZM132.243 19C131.716 19 131.294 18.8418 130.978 18.5254C130.673 18.209 130.521 17.7872 130.521 17.2598V11.8635H128.13V10.3343H130.521V7.46917H132.331V10.3343H134.915V11.8635H132.331V16.9434C132.331 17.295 132.495 17.4708 132.823 17.4708H134.634V19H132.243ZM140.593 19.2461C139.491 19.2461 138.577 19 137.85 18.5078C137.124 18.0157 136.679 17.2715 136.515 16.2755L138.202 15.8712C138.296 16.3517 138.454 16.7325 138.677 17.0137C138.899 17.295 139.175 17.4942 139.503 17.6114C139.843 17.7286 140.206 17.7872 140.593 17.7872C141.167 17.7872 141.606 17.6758 141.911 17.4532C142.227 17.2305 142.385 16.9434 142.385 16.5919C142.385 16.2403 142.239 15.9825 141.946 15.8185C141.653 15.6544 141.22 15.5197 140.645 15.4142L140.048 15.3087C139.462 15.2033 138.929 15.0509 138.448 14.8517C137.968 14.6525 137.587 14.3771 137.306 14.0256C137.024 13.674 136.884 13.2229 136.884 12.6721C136.884 11.8518 137.188 11.219 137.798 10.7737C138.407 10.3167 139.216 10.0882 140.223 10.0882C141.196 10.0882 141.993 10.3109 142.614 10.7562C143.247 11.1897 143.657 11.7815 143.844 12.5315L142.157 13.0061C142.052 12.4788 141.829 12.1096 141.489 11.8987C141.149 11.676 140.727 11.5647 140.223 11.5647C139.731 11.5647 139.345 11.6585 139.063 11.846C138.782 12.0217 138.641 12.2737 138.641 12.6018C138.641 12.9533 138.776 13.2111 139.046 13.3752C139.327 13.5393 139.702 13.6623 140.171 13.7443L140.786 13.8498C141.407 13.9553 141.975 14.1017 142.491 14.2892C143.007 14.4767 143.411 14.7462 143.704 15.0978C144.008 15.4493 144.161 15.9181 144.161 16.504C144.161 17.3712 143.839 18.045 143.194 18.5254C142.55 19.0059 141.682 19.2461 140.593 19.2461Z" fill="black"/>
<defs>
<clipPath id="clip0_362_2514">
<rect width="16.276" height="18.0664" fill="white" transform="translate(3.71094 4.21094)"/>
</clipPath>
</defs>
</svg>
