<svg width="108" height="113" viewBox="0 0 108 113" fill="none" xmlns="http://www.w3.org/2000/svg">
<line x1="1.2201" y1="1.93242" x2="43.2201" y2="49.9324" stroke="#7FC9E9" stroke-width="3.24245"/>
<rect x="34.5" y="39.5" width="72" height="72" rx="18.5" fill="white" stroke="#7FC9E9" stroke-width="3"/>
<path d="M70.9964 78.2464C72.9291 78.2464 74.4958 76.6797 74.4958 74.7471C74.4958 72.8144 72.9291 71.2477 70.9964 71.2477C69.0638 71.2477 67.4971 72.8144 67.4971 74.7471C67.4971 76.6797 69.0638 78.2464 70.9964 78.2464Z" stroke="#7FC9E9" stroke-width="2" stroke-linecap="round" stroke-linejoin="round"/>
<path d="M67.4971 74.7473V70.2454C67.4971 69.9304 67.5198 69.619 67.5671 69.3075L68.8198 60.86C68.9318 59.8155 69.8644 59.0001 70.9964 59.0001C72.1285 59.0001 73.0611 59.8155 73.1731 60.86L74.4258 69.3075C74.4731 69.619 74.4958 69.9322 74.4958 70.2454V74.7473" stroke="#7FC9E9" stroke-width="2" stroke-linecap="round" stroke-linejoin="round"/>
<path d="M72.7645 71.7374L76.6751 73.97C76.948 74.1275 77.2088 74.3025 77.4555 74.4949L84.1673 79.5883C85.0194 80.2042 85.2591 81.4079 84.6922 82.3808C84.1235 83.3536 82.9477 83.749 81.9836 83.3273L74.0138 80.3879C73.7208 80.2744 73.4365 80.1393 73.1635 79.9837L69.2529 77.7493" stroke="#7FC9E9" stroke-width="2" stroke-linecap="round" stroke-linejoin="round"/>
<path d="M72.7471 77.7493L68.8348 79.9837C68.5622 80.1386 68.2786 80.2731 67.9862 80.3861L60.0163 83.3273C59.0523 83.749 57.8765 83.3536 57.3078 82.3825C56.7409 81.4079 56.9806 80.2042 57.8327 79.5883L64.5445 74.4967C64.7904 74.3015 65.0514 74.1259 65.3249 73.9718L69.2354 71.7374M62.2489 92.2437H79.7458M67.498 92.2437L69.2477 79.9959M72.7471 79.9959L74.4967 92.2437" stroke="#7FC9E9" stroke-width="2" stroke-linecap="round" stroke-linejoin="round"/>
</svg>
