<svg width="464" height="407" viewBox="0 0 464 407" fill="none" xmlns="http://www.w3.org/2000/svg">
<g filter="url(#filter0_d_115_12)">
<rect y="8.38135" width="464" height="386" rx="15" fill="white"/>
<rect y="8.38135" width="464" height="386" rx="15" fill="url(#paint0_radial_115_12)" fill-opacity="0.6"/>
<rect x="1.5" y="9.88135" width="461" height="383" rx="13.5" stroke="black" stroke-width="3"/>
<path d="M38 49.8813C38 44.3585 42.4772 39.8813 48 39.8813H416C421.523 39.8813 426 44.3585 426 49.8813V352.881C426 358.404 421.523 362.881 416 362.881H48C42.4771 362.881 38 358.404 38 352.881V49.8813Z" fill="white"/>
<path fill-rule="evenodd" clip-rule="evenodd" d="M416 41.8813H48C43.5817 41.8813 40 45.4631 40 49.8813V352.881C40 357.3 43.5817 360.881 48 360.881H416C420.418 360.881 424 357.3 424 352.881V49.8813C424 45.4631 420.418 41.8813 416 41.8813ZM48 39.8813C42.4772 39.8813 38 44.3585 38 49.8813V352.881C38 358.404 42.4771 362.881 48 362.881H416C421.523 362.881 426 358.404 426 352.881V49.8813C426 44.3585 421.523 39.8813 416 39.8813H48Z" fill="#EDEDED"/>
<path d="M359.562 102.881C358.962 102.881 358.482 102.701 358.122 102.341C357.775 101.981 357.602 101.501 357.602 100.901V94.7612H354.882V93.0212H357.602V89.7612H359.662V93.0212H362.602V94.7612H359.662V100.541C359.662 100.941 359.848 101.141 360.222 101.141H362.282V102.881H359.562Z" fill="black"/>
<path d="M349.073 103.161C348.073 103.161 347.2 102.955 346.453 102.541C345.706 102.115 345.12 101.521 344.693 100.761C344.28 99.9879 344.073 99.0945 344.073 98.0812V97.8412C344.073 96.8145 344.28 95.9212 344.693 95.1612C345.106 94.3879 345.68 93.7945 346.413 93.3812C347.16 92.9545 348.02 92.7412 348.993 92.7412C349.94 92.7412 350.766 92.9545 351.473 93.3812C352.193 93.7945 352.753 94.3745 353.153 95.1212C353.553 95.8679 353.753 96.7412 353.753 97.7412V98.5212H346.173C346.2 99.3879 346.486 100.081 347.033 100.601C347.593 101.108 348.286 101.361 349.113 101.361C349.886 101.361 350.466 101.188 350.853 100.841C351.253 100.495 351.56 100.095 351.773 99.6412L353.473 100.521C353.286 100.895 353.013 101.288 352.653 101.701C352.306 102.115 351.846 102.461 351.273 102.741C350.7 103.021 349.966 103.161 349.073 103.161ZM346.193 96.9412H351.653C351.6 96.1945 351.333 95.6145 350.853 95.2012C350.373 94.7745 349.746 94.5612 348.973 94.5612C348.2 94.5612 347.566 94.7745 347.073 95.2012C346.593 95.6145 346.3 96.1945 346.193 96.9412Z" fill="black"/>
<path d="M339.436 102.881V88.8813H341.496V102.881H339.436Z" fill="black"/>
<path d="M334.319 102.881V88.8813H336.379V102.881H334.319Z" fill="black"/>
<path d="M325.836 103.161C325.129 103.161 324.496 103.041 323.936 102.801C323.389 102.561 322.949 102.208 322.616 101.741C322.296 101.275 322.136 100.708 322.136 100.041C322.136 99.3612 322.296 98.8012 322.616 98.3612C322.949 97.9079 323.396 97.5679 323.956 97.3412C324.529 97.1145 325.176 97.0012 325.896 97.0012H328.896V96.3612C328.896 95.7879 328.723 95.3279 328.376 94.9812C328.029 94.6345 327.496 94.4612 326.776 94.4612C326.069 94.4612 325.529 94.6279 325.156 94.9612C324.783 95.2945 324.536 95.7279 324.416 96.2612L322.496 95.6412C322.656 95.1079 322.909 94.6279 323.256 94.2012C323.616 93.7612 324.089 93.4079 324.676 93.1412C325.263 92.8745 325.969 92.7412 326.796 92.7412C328.076 92.7412 329.083 93.0679 329.816 93.7212C330.549 94.3745 330.916 95.3012 330.916 96.5012V100.561C330.916 100.961 331.103 101.161 331.476 101.161H332.316V102.881H330.776C330.309 102.881 329.929 102.761 329.636 102.521C329.343 102.281 329.196 101.955 329.196 101.541V101.481H328.896C328.789 101.681 328.629 101.915 328.416 102.181C328.203 102.448 327.889 102.681 327.476 102.881C327.063 103.068 326.516 103.161 325.836 103.161ZM326.136 101.461C326.963 101.461 327.629 101.228 328.136 100.761C328.643 100.281 328.896 99.6279 328.896 98.8012V98.6012H326.016C325.469 98.6012 325.029 98.7212 324.696 98.9612C324.363 99.1879 324.196 99.5279 324.196 99.9812C324.196 100.435 324.369 100.795 324.716 101.061C325.063 101.328 325.536 101.461 326.136 101.461Z" fill="black"/>
<path d="M308.094 102.881L306.414 93.0212H308.474L309.714 101.501H310.034L311.754 93.0212H315.094L316.794 101.501H317.114L318.354 93.0212H320.414L318.734 102.881H315.274L313.574 94.4212H313.254L311.554 102.881H308.094Z" fill="black"/>
<path d="M294.348 103.161C293.321 103.161 292.407 102.975 291.607 102.601C290.807 102.228 290.181 101.688 289.728 100.981C289.288 100.275 289.068 99.4347 289.068 98.4613V98.1013H291.167V98.4213C291.167 99.3013 291.454 100.001 292.027 100.521C292.614 101.028 293.388 101.281 294.348 101.281C295.308 101.281 296.054 101.041 296.588 100.561C297.121 100.081 297.387 99.4747 297.387 98.7413V98.5613C297.387 98.0413 297.261 97.6213 297.008 97.3013C296.754 96.9813 296.414 96.748 295.988 96.6013C295.561 96.4413 295.081 96.3613 294.548 96.3613H292.008V93.9413L296.928 91.0413V90.7613H289.408V88.8813H299.208V91.7213L294.508 94.5213V94.8013H295.368C296.074 94.8013 296.741 94.9347 297.368 95.2013C297.994 95.468 298.501 95.8747 298.887 96.4213C299.287 96.968 299.488 97.6613 299.488 98.5013V98.7413C299.488 99.6347 299.274 100.415 298.848 101.081C298.421 101.735 297.821 102.248 297.048 102.621C296.274 102.981 295.374 103.161 294.348 103.161Z" fill="black"/>
<path d="M282.675 103.161C281.715 103.161 280.975 102.988 280.455 102.641C279.948 102.295 279.568 101.908 279.315 101.481H278.995V102.881H276.975V88.8813H279.035V94.3613H279.355C279.515 94.0947 279.728 93.8413 279.995 93.6013C280.262 93.348 280.615 93.1413 281.055 92.9813C281.495 92.8213 282.035 92.7413 282.675 92.7413C283.502 92.7413 284.262 92.9413 284.955 93.3413C285.648 93.7413 286.202 94.3213 286.615 95.0813C287.028 95.8413 287.235 96.748 287.235 97.8013V98.1013C287.235 99.168 287.022 100.081 286.595 100.841C286.182 101.588 285.628 102.161 284.935 102.561C284.255 102.961 283.502 103.161 282.675 103.161ZM282.075 101.361C282.968 101.361 283.702 101.075 284.275 100.501C284.862 99.928 285.155 99.108 285.155 98.0413V97.8613C285.155 96.808 284.868 95.9947 284.295 95.4213C283.722 94.848 282.982 94.5613 282.075 94.5613C281.195 94.5613 280.462 94.848 279.875 95.4213C279.302 95.9947 279.015 96.808 279.015 97.8613V98.0413C279.015 99.108 279.302 99.928 279.875 100.501C280.462 101.075 281.195 101.361 282.075 101.361Z" fill="black"/>
<path d="M269.815 103.161C268.815 103.161 267.942 102.955 267.195 102.541C266.449 102.115 265.862 101.521 265.435 100.761C265.022 99.9879 264.815 99.0945 264.815 98.0812V97.8412C264.815 96.8145 265.022 95.9212 265.435 95.1612C265.849 94.3879 266.422 93.7945 267.155 93.3812C267.902 92.9545 268.762 92.7412 269.735 92.7412C270.682 92.7412 271.509 92.9545 272.215 93.3812C272.935 93.7945 273.495 94.3745 273.895 95.1212C274.295 95.8679 274.495 96.7412 274.495 97.7412V98.5212H266.915C266.942 99.3879 267.229 100.081 267.775 100.601C268.335 101.108 269.029 101.361 269.855 101.361C270.629 101.361 271.209 101.188 271.595 100.841C271.995 100.495 272.302 100.095 272.515 99.6412L274.215 100.521C274.029 100.895 273.755 101.288 273.395 101.701C273.049 102.115 272.589 102.461 272.015 102.741C271.442 103.021 270.709 103.161 269.815 103.161ZM266.935 96.9412H272.395C272.342 96.1945 272.075 95.6145 271.595 95.2012C271.115 94.7745 270.489 94.5612 269.715 94.5612C268.942 94.5612 268.309 94.7745 267.815 95.2012C267.335 95.6145 267.042 96.1945 266.935 96.9412Z" fill="black"/>
<path d="M248.956 102.881L246.896 88.8813H249.056L250.736 101.421H251.056L253.216 88.8813H256.996L259.156 101.421H259.476L261.136 88.8813H263.296L261.236 102.881H257.456L255.256 90.1613H254.936L252.756 102.881H248.956Z" fill="black"/>
<path d="M235.061 102.881V93.0212H237.081V94.1812H237.401C237.561 93.7679 237.814 93.4679 238.161 93.2812C238.521 93.0812 238.961 92.9812 239.481 92.9812H240.661V94.8412H239.401C238.734 94.8412 238.188 95.0279 237.761 95.4012C237.334 95.7612 237.121 96.3212 237.121 97.0812V102.881H235.061Z" fill="black"/>
<path d="M226.556 103.061C225.809 103.061 225.142 102.895 224.556 102.561C223.969 102.228 223.509 101.755 223.176 101.141C222.842 100.528 222.676 99.7946 222.676 98.9412V93.0212H224.736V98.8012C224.736 99.6546 224.949 100.288 225.376 100.701C225.802 101.101 226.396 101.301 227.156 101.301C227.996 101.301 228.669 101.021 229.176 100.461C229.696 99.8879 229.956 99.0679 229.956 98.0012V93.0212H232.016V102.881H229.996V101.401H229.676C229.489 101.801 229.156 102.181 228.676 102.541C228.196 102.888 227.489 103.061 226.556 103.061Z" fill="black"/>
<path d="M215.091 103.161C214.105 103.161 213.225 102.961 212.451 102.561C211.691 102.148 211.091 101.561 210.651 100.801C210.211 100.041 209.991 99.1412 209.991 98.1012V97.8012C209.991 96.7612 210.211 95.8679 210.651 95.1212C211.091 94.3612 211.691 93.7745 212.451 93.3612C213.225 92.9479 214.105 92.7412 215.091 92.7412C216.078 92.7412 216.958 92.9479 217.731 93.3612C218.505 93.7745 219.111 94.3612 219.551 95.1212C219.991 95.8679 220.211 96.7612 220.211 97.8012V98.1012C220.211 99.1412 219.991 100.041 219.551 100.801C219.111 101.561 218.505 102.148 217.731 102.561C216.958 102.961 216.078 103.161 215.091 103.161ZM215.091 101.321C215.998 101.321 216.731 101.035 217.291 100.461C217.865 99.8745 218.151 99.0679 218.151 98.0412V97.8612C218.151 96.8345 217.871 96.0345 217.311 95.4612C216.751 94.8745 216.011 94.5812 215.091 94.5812C214.198 94.5812 213.465 94.8745 212.891 95.4612C212.331 96.0345 212.051 96.8345 212.051 97.8612V98.0412C212.051 99.0679 212.331 99.8745 212.891 100.461C213.465 101.035 214.198 101.321 215.091 101.321Z" fill="black"/>
<path d="M199.326 106.881V105.081H204.826C205.199 105.081 205.386 104.881 205.386 104.481V101.441H205.066C204.946 101.708 204.759 101.968 204.506 102.221C204.266 102.461 203.939 102.661 203.526 102.821C203.113 102.981 202.593 103.061 201.966 103.061C201.219 103.061 200.553 102.895 199.966 102.561C199.379 102.228 198.919 101.755 198.586 101.141C198.253 100.528 198.086 99.8012 198.086 98.9612V93.0212H200.146V98.8012C200.146 99.6546 200.359 100.288 200.786 100.701C201.213 101.101 201.806 101.301 202.566 101.301C203.406 101.301 204.079 101.021 204.586 100.461C205.106 99.9012 205.366 99.0879 205.366 98.0212V93.0212H207.426V104.901C207.426 105.501 207.246 105.981 206.886 106.341C206.539 106.701 206.059 106.881 205.446 106.881H199.326Z" fill="black"/>
<path d="M187.628 102.881C187.028 102.881 186.548 102.701 186.188 102.341C185.842 101.981 185.668 101.501 185.668 100.901V94.7612H182.948V93.0212H185.668V89.7612H187.728V93.0212H190.668V94.7612H187.728V100.541C187.728 100.941 187.915 101.141 188.288 101.141H190.348V102.881H187.628Z" fill="black"/>
<path d="M177.043 103.161C176.097 103.161 175.237 102.961 174.463 102.561C173.703 102.161 173.097 101.581 172.643 100.821C172.203 100.061 171.983 99.1479 171.983 98.0812V97.8212C171.983 96.7545 172.203 95.8479 172.643 95.1012C173.097 94.3412 173.703 93.7612 174.463 93.3612C175.237 92.9479 176.097 92.7412 177.043 92.7412C177.99 92.7412 178.797 92.9145 179.463 93.2612C180.13 93.6079 180.663 94.0679 181.063 94.6412C181.477 95.2145 181.743 95.8479 181.863 96.5412L179.863 96.9612C179.797 96.5212 179.657 96.1212 179.443 95.7612C179.23 95.4012 178.93 95.1145 178.543 94.9012C178.157 94.6879 177.67 94.5812 177.083 94.5812C176.51 94.5812 175.99 94.7145 175.523 94.9812C175.07 95.2345 174.71 95.6079 174.443 96.1012C174.177 96.5812 174.043 97.1679 174.043 97.8612V98.0412C174.043 98.7345 174.177 99.3279 174.443 99.8212C174.71 100.315 175.07 100.688 175.523 100.941C175.99 101.195 176.51 101.321 177.083 101.321C177.95 101.321 178.61 101.101 179.063 100.661C179.517 100.208 179.803 99.6345 179.923 98.9412L181.923 99.4012C181.763 100.081 181.477 100.708 181.063 101.281C180.663 101.855 180.13 102.315 179.463 102.661C178.797 102.995 177.99 103.161 177.043 103.161Z" fill="black"/>
<path d="M165.304 103.161C164.304 103.161 163.43 102.955 162.684 102.541C161.937 102.115 161.35 101.521 160.924 100.761C160.51 99.9879 160.304 99.0945 160.304 98.0812V97.8412C160.304 96.8145 160.51 95.9212 160.924 95.1612C161.337 94.3879 161.91 93.7945 162.644 93.3812C163.39 92.9545 164.25 92.7412 165.224 92.7412C166.17 92.7412 166.997 92.9545 167.704 93.3812C168.424 93.7945 168.984 94.3745 169.384 95.1212C169.784 95.8679 169.984 96.7412 169.984 97.7412V98.5212H162.404C162.43 99.3879 162.717 100.081 163.264 100.601C163.824 101.108 164.517 101.361 165.344 101.361C166.117 101.361 166.697 101.188 167.084 100.841C167.484 100.495 167.79 100.095 168.004 99.6412L169.704 100.521C169.517 100.895 169.244 101.288 168.884 101.701C168.537 102.115 168.077 102.461 167.504 102.741C166.93 103.021 166.197 103.161 165.304 103.161ZM162.424 96.9412H167.884C167.83 96.1945 167.564 95.6145 167.084 95.2012C166.604 94.7745 165.977 94.5612 165.204 94.5612C164.43 94.5612 163.797 94.7745 163.304 95.2012C162.824 95.6145 162.53 96.1945 162.424 96.9412Z" fill="black"/>
<path d="M148.479 102.881V93.0213H150.499V94.5013H150.819C151.006 94.1013 151.339 93.728 151.819 93.3813C152.299 93.0347 153.012 92.8613 153.959 92.8613C154.706 92.8613 155.366 93.028 155.939 93.3613C156.526 93.6947 156.986 94.168 157.319 94.7813C157.652 95.3813 157.819 96.108 157.819 96.9613V102.881H155.759V97.1213C155.759 96.268 155.546 95.6413 155.119 95.2413C154.692 94.828 154.106 94.6213 153.359 94.6213C152.506 94.6213 151.819 94.9013 151.299 95.4613C150.792 96.0213 150.539 96.8347 150.539 97.9013V102.881H148.479Z" fill="black"/>
<path d="M136.174 102.881V93.0213H138.194V94.5013H138.514C138.701 94.1013 139.034 93.728 139.514 93.3813C139.994 93.0347 140.708 92.8613 141.654 92.8613C142.401 92.8613 143.061 93.028 143.634 93.3613C144.221 93.6947 144.681 94.168 145.014 94.7813C145.348 95.3813 145.514 96.108 145.514 96.9613V102.881H143.454V97.1213C143.454 96.268 143.241 95.6413 142.814 95.2413C142.388 94.828 141.801 94.6213 141.054 94.6213C140.201 94.6213 139.514 94.9013 138.994 95.4613C138.488 96.0213 138.234 96.8347 138.234 97.9013V102.881H136.174Z" fill="black"/>
<path d="M128.49 103.161C127.503 103.161 126.623 102.961 125.85 102.561C125.09 102.148 124.49 101.561 124.05 100.801C123.61 100.041 123.39 99.1412 123.39 98.1012V97.8012C123.39 96.7612 123.61 95.8679 124.05 95.1212C124.49 94.3612 125.09 93.7745 125.85 93.3612C126.623 92.9479 127.503 92.7412 128.49 92.7412C129.476 92.7412 130.356 92.9479 131.13 93.3612C131.903 93.7745 132.51 94.3612 132.95 95.1212C133.39 95.8679 133.61 96.7612 133.61 97.8012V98.1012C133.61 99.1412 133.39 100.041 132.95 100.801C132.51 101.561 131.903 102.148 131.13 102.561C130.356 102.961 129.476 103.161 128.49 103.161ZM128.49 101.321C129.396 101.321 130.13 101.035 130.69 100.461C131.263 99.8745 131.55 99.0679 131.55 98.0412V97.8612C131.55 96.8345 131.27 96.0345 130.71 95.4612C130.15 94.8745 129.41 94.5812 128.49 94.5812C127.596 94.5812 126.863 94.8745 126.29 95.4612C125.73 96.0345 125.45 96.8345 125.45 97.8612V98.0412C125.45 99.0679 125.73 99.8745 126.29 100.461C126.863 101.035 127.596 101.321 128.49 101.321Z" fill="black"/>
<path d="M116.158 103.161C114.451 103.161 113.098 102.681 112.098 101.721C111.098 100.748 110.598 99.348 110.598 97.5213V94.2413C110.598 92.4147 111.098 91.0213 112.098 90.0613C113.098 89.088 114.451 88.6013 116.158 88.6013C117.838 88.6013 119.131 89.068 120.038 90.0013C120.958 90.9347 121.418 92.208 121.418 93.8213V93.9413H119.278V93.7613C119.278 92.8147 119.018 92.0413 118.498 91.4413C117.991 90.8413 117.211 90.5413 116.158 90.5413C115.091 90.5413 114.258 90.868 113.658 91.5213C113.058 92.1613 112.758 93.0547 112.758 94.2013V97.5613C112.758 98.6947 113.058 99.588 113.658 100.241C114.258 100.895 115.091 101.221 116.158 101.221C117.211 101.221 117.991 100.921 118.498 100.321C119.018 99.708 119.278 98.9347 119.278 98.0013V97.6613H121.418V97.9413C121.418 99.5547 120.958 100.828 120.038 101.761C119.131 102.695 117.838 103.161 116.158 103.161Z" fill="black"/>
<g filter="url(#filter1_d_115_12)">
<rect x="85" y="151.808" width="302.146" height="81" rx="10" fill="white" shape-rendering="crispEdges"/>
<rect x="84.5" y="151.308" width="303.146" height="82" rx="10.5" stroke="#F3F3F3" shape-rendering="crispEdges"/>
<path d="M189.986 199.168V185.168H192.046V193.148H192.366L196.246 189.308H198.986L194.006 194.088L199.146 199.168H196.426L192.366 195.068H192.046V199.168H189.986Z" fill="black"/>
<path d="M183.518 199.448C182.265 199.448 181.225 199.168 180.398 198.608C179.571 198.048 179.065 197.202 178.878 196.068L180.798 195.608C180.905 196.155 181.085 196.588 181.338 196.908C181.591 197.228 181.905 197.455 182.278 197.588C182.665 197.722 183.078 197.788 183.518 197.788C184.171 197.788 184.671 197.662 185.018 197.408C185.378 197.155 185.558 196.828 185.558 196.428C185.558 196.028 185.391 195.735 185.058 195.548C184.725 195.362 184.231 195.208 183.578 195.088L182.898 194.968C182.231 194.848 181.625 194.675 181.078 194.448C180.531 194.222 180.098 193.908 179.778 193.508C179.458 193.108 179.298 192.595 179.298 191.968C179.298 191.035 179.645 190.315 180.338 189.808C181.031 189.288 181.951 189.028 183.098 189.028C184.205 189.028 185.111 189.282 185.818 189.788C186.538 190.282 187.005 190.955 187.218 191.808L185.298 192.348C185.178 191.748 184.925 191.328 184.538 191.088C184.151 190.835 183.671 190.708 183.098 190.708C182.538 190.708 182.098 190.815 181.778 191.028C181.458 191.228 181.298 191.515 181.298 191.888C181.298 192.288 181.451 192.582 181.758 192.768C182.078 192.955 182.505 193.095 183.038 193.188L183.738 193.308C184.445 193.428 185.091 193.595 185.678 193.808C186.265 194.022 186.725 194.328 187.058 194.728C187.405 195.128 187.578 195.662 187.578 196.328C187.578 197.315 187.211 198.082 186.478 198.628C185.745 199.175 184.758 199.448 183.518 199.448Z" fill="black"/>
<path d="M171.073 199.448C170.366 199.448 169.733 199.328 169.173 199.088C168.626 198.848 168.186 198.495 167.853 198.028C167.533 197.562 167.373 196.995 167.373 196.328C167.373 195.648 167.533 195.088 167.853 194.648C168.186 194.195 168.633 193.855 169.193 193.628C169.766 193.402 170.413 193.288 171.133 193.288H174.133V192.648C174.133 192.075 173.96 191.615 173.613 191.268C173.266 190.922 172.733 190.748 172.013 190.748C171.306 190.748 170.766 190.915 170.393 191.248C170.02 191.582 169.773 192.015 169.653 192.548L167.733 191.928C167.893 191.395 168.146 190.915 168.493 190.488C168.853 190.048 169.326 189.695 169.913 189.428C170.5 189.162 171.206 189.028 172.033 189.028C173.313 189.028 174.32 189.355 175.053 190.008C175.786 190.662 176.153 191.588 176.153 192.788V196.848C176.153 197.248 176.34 197.448 176.713 197.448H177.553V199.168H176.013C175.546 199.168 175.166 199.048 174.873 198.808C174.58 198.568 174.433 198.242 174.433 197.828V197.768H174.133C174.026 197.968 173.866 198.202 173.653 198.468C173.44 198.735 173.126 198.968 172.713 199.168C172.3 199.355 171.753 199.448 171.073 199.448ZM171.373 197.748C172.2 197.748 172.866 197.515 173.373 197.048C173.88 196.568 174.133 195.915 174.133 195.088V194.888H171.253C170.706 194.888 170.266 195.008 169.933 195.248C169.6 195.475 169.433 195.815 169.433 196.268C169.433 196.722 169.606 197.082 169.953 197.348C170.3 197.615 170.773 197.748 171.373 197.748Z" fill="black"/>
<path d="M150.473 199.168V185.168H154.533L157.593 197.728H157.913L160.973 185.168H165.033V199.168H162.933V186.688H162.613L159.573 199.168H155.933L152.893 186.688H152.573V199.168H150.473Z" fill="black"/>
<path d="M142.05 199.448C141.343 199.448 140.71 199.328 140.15 199.088C139.603 198.848 139.163 198.495 138.83 198.028C138.51 197.562 138.35 196.995 138.35 196.328C138.35 195.648 138.51 195.088 138.83 194.648C139.163 194.195 139.61 193.855 140.17 193.628C140.743 193.402 141.39 193.288 142.11 193.288H145.11V192.648C145.11 192.075 144.936 191.615 144.59 191.268C144.243 190.922 143.71 190.748 142.99 190.748C142.283 190.748 141.743 190.915 141.37 191.248C140.996 191.582 140.75 192.015 140.63 192.548L138.71 191.928C138.87 191.395 139.123 190.915 139.47 190.488C139.83 190.048 140.303 189.695 140.89 189.428C141.476 189.162 142.183 189.028 143.01 189.028C144.29 189.028 145.296 189.355 146.03 190.008C146.763 190.662 147.13 191.588 147.13 192.788V196.848C147.13 197.248 147.316 197.448 147.69 197.448H148.53V199.168H146.99C146.523 199.168 146.143 199.048 145.85 198.808C145.556 198.568 145.41 198.242 145.41 197.828V197.768H145.11C145.003 197.968 144.843 198.202 144.63 198.468C144.416 198.735 144.103 198.968 143.69 199.168C143.276 199.355 142.73 199.448 142.05 199.448ZM142.35 197.748C143.176 197.748 143.843 197.515 144.35 197.048C144.856 196.568 145.11 195.915 145.11 195.088V194.888H142.23C141.683 194.888 141.243 195.008 140.91 195.248C140.576 195.475 140.41 195.815 140.41 196.268C140.41 196.722 140.583 197.082 140.93 197.348C141.276 197.615 141.75 197.748 142.35 197.748Z" fill="black"/>
<path d="M133.549 199.168C132.949 199.168 132.469 198.988 132.109 198.628C131.762 198.268 131.589 197.788 131.589 197.188V191.048H128.869V189.308H131.589V186.048H133.649V189.308H136.589V191.048H133.649V196.828C133.649 197.228 133.836 197.428 134.209 197.428H136.269V199.168H133.549Z" fill="black"/>
<path d="M123.06 199.448C122.06 199.448 121.187 199.242 120.44 198.828C119.694 198.402 119.107 197.808 118.68 197.048C118.267 196.275 118.06 195.382 118.06 194.368V194.128C118.06 193.102 118.267 192.208 118.68 191.448C119.094 190.675 119.667 190.082 120.4 189.668C121.147 189.242 122.007 189.028 122.98 189.028C123.927 189.028 124.754 189.242 125.46 189.668C126.18 190.082 126.74 190.662 127.14 191.408C127.54 192.155 127.74 193.028 127.74 194.028V194.808H120.16C120.187 195.675 120.474 196.368 121.02 196.888C121.58 197.395 122.274 197.648 123.1 197.648C123.874 197.648 124.454 197.475 124.84 197.128C125.24 196.782 125.547 196.382 125.76 195.928L127.46 196.808C127.274 197.182 127 197.575 126.64 197.988C126.294 198.402 125.834 198.748 125.26 199.028C124.687 199.308 123.954 199.448 123.06 199.448ZM120.18 193.228H125.64C125.587 192.482 125.32 191.902 124.84 191.488C124.36 191.062 123.734 190.848 122.96 190.848C122.187 190.848 121.554 191.062 121.06 191.488C120.58 191.902 120.287 192.482 120.18 193.228Z" fill="black"/>
<path d="M101 199.168V185.168H105.06L108.12 197.728H108.44L111.5 185.168H115.56V199.168H113.46V186.688H113.14L110.1 199.168H106.46L103.42 186.688H103.1V199.168H101Z" fill="black"/>
<path d="M362.067 167.051L341.767 182.128L345.521 173.233L362.067 167.051Z" fill="#E2761B"/>
<path fill-rule="evenodd" clip-rule="evenodd" d="M362.157 167.002C362.181 167.047 362.169 167.102 362.128 167.133L341.828 182.21C341.791 182.237 341.74 182.236 341.704 182.208C341.668 182.179 341.655 182.13 341.673 182.088L345.427 173.193C345.438 173.167 345.459 173.147 345.486 173.137L362.031 166.955C362.079 166.937 362.132 166.957 362.157 167.002ZM345.598 173.313L342.007 181.823L361.428 167.398L345.598 173.313Z" fill="#E2761B"/>
<path d="M315.204 167.051L335.341 182.27L331.77 173.233L315.204 167.051ZM354.763 201.999L349.357 210.282L360.924 213.465L364.25 202.183L354.763 201.999ZM313.062 202.183L316.367 213.465L327.935 210.282L322.528 201.999L313.062 202.183Z" fill="#E4761B"/>
<path fill-rule="evenodd" clip-rule="evenodd" d="M315.115 167.002C315.139 166.957 315.192 166.937 315.24 166.955L331.806 173.137C331.833 173.147 331.855 173.168 331.865 173.195L335.436 182.233C335.452 182.276 335.439 182.324 335.402 182.352C335.366 182.379 335.316 182.379 335.279 182.352L315.143 167.132C315.102 167.102 315.09 167.046 315.115 167.002ZM315.823 167.39L335.112 181.97L331.692 173.312L315.823 167.39ZM322.526 201.897C322.562 201.896 322.595 201.914 322.614 201.943L328.02 210.226C328.038 210.254 328.042 210.288 328.03 210.318C328.019 210.349 327.993 210.372 327.962 210.38L316.394 213.563C316.34 213.578 316.285 213.547 316.269 213.493L312.964 202.211C312.955 202.181 312.961 202.148 312.98 202.122C312.999 202.097 313.028 202.081 313.06 202.081L322.526 201.897ZM354.678 201.943C354.697 201.914 354.73 201.896 354.765 201.897L364.252 202.081C364.284 202.081 364.313 202.097 364.332 202.122C364.351 202.148 364.357 202.181 364.348 202.211L361.022 213.494C361.007 213.547 360.951 213.578 360.897 213.563L349.33 210.38C349.298 210.372 349.273 210.349 349.261 210.318C349.25 210.288 349.253 210.254 349.271 210.226L354.678 201.943ZM313.197 202.282L316.437 213.34L327.773 210.221L322.474 202.102L313.197 202.282ZM354.818 202.102L349.519 210.221L360.855 213.34L364.114 202.282L354.818 202.102Z" fill="#E4761B"/>
<path d="M327.282 188.003L324.058 192.879L335.545 193.389L335.137 181.046L327.282 188.003ZM349.989 188.003L342.032 180.904L341.767 193.389L353.233 192.879L349.989 188.003ZM327.935 210.282L334.831 206.916L328.873 202.264L327.935 210.282ZM342.44 206.916L349.357 210.282L348.398 202.264L342.44 206.916Z" fill="#E4761B"/>
<path fill-rule="evenodd" clip-rule="evenodd" d="M341.992 180.81C342.028 180.794 342.071 180.801 342.1 180.827L350.057 187.927C350.063 187.933 350.069 187.94 350.074 187.947L353.318 192.823C353.338 192.853 353.341 192.893 353.324 192.926C353.307 192.958 353.274 192.98 353.237 192.981L341.772 193.491C341.743 193.493 341.716 193.482 341.696 193.462C341.676 193.443 341.665 193.415 341.665 193.387L341.93 180.901C341.931 180.862 341.955 180.826 341.992 180.81ZM342.13 181.127L341.871 193.283L353.048 192.785L349.911 188.071L342.13 181.127ZM335.177 180.953C335.213 180.968 335.237 181.003 335.239 181.043L335.647 193.386C335.648 193.414 335.637 193.442 335.616 193.462C335.596 193.482 335.568 193.493 335.54 193.491L324.054 192.981C324.017 192.98 323.984 192.958 323.968 192.926C323.951 192.893 323.953 192.854 323.973 192.823L327.197 187.947C327.202 187.94 327.208 187.933 327.214 187.927L335.069 180.97C335.099 180.944 335.141 180.937 335.177 180.953ZM327.36 188.071L324.243 192.785L335.439 193.283L335.042 181.267L327.36 188.071ZM348.437 202.17C348.471 202.184 348.495 202.215 348.499 202.252L349.458 210.27C349.462 210.307 349.446 210.344 349.416 210.365C349.385 210.387 349.346 210.39 349.312 210.374L342.396 207.007C342.364 206.992 342.343 206.961 342.339 206.926C342.335 206.891 342.35 206.857 342.378 206.835L348.335 202.184C348.364 202.161 348.403 202.156 348.437 202.17ZM328.834 202.17C328.868 202.156 328.907 202.161 328.936 202.184L334.893 206.835C334.921 206.857 334.936 206.891 334.932 206.926C334.928 206.961 334.907 206.992 334.875 207.007L327.98 210.374C327.946 210.39 327.906 210.387 327.876 210.365C327.845 210.344 327.829 210.307 327.833 210.27L328.772 202.252C328.776 202.216 328.8 202.184 328.834 202.17ZM328.953 202.456L328.058 210.108L334.639 206.896L328.953 202.456ZM342.632 206.896L349.233 210.108L348.318 202.456L342.632 206.896Z" fill="#E4761B"/>
<path d="M349.357 210.282L342.44 206.916L342.991 211.425L342.93 213.322L349.357 210.282ZM327.935 210.282L334.361 213.322L334.321 211.425L334.831 206.916L327.935 210.282Z" fill="#D7C1B3"/>
<path fill-rule="evenodd" clip-rule="evenodd" d="M342.381 206.833C342.412 206.811 342.451 206.808 342.485 206.824L349.401 210.19C349.437 210.207 349.459 210.243 349.459 210.283C349.458 210.322 349.436 210.357 349.4 210.374L342.974 213.414C342.942 213.429 342.904 213.427 342.874 213.407C342.844 213.388 342.827 213.354 342.828 213.319L342.889 211.429L342.339 206.928C342.335 206.891 342.351 206.854 342.381 206.833ZM334.889 206.832C334.92 206.854 334.936 206.89 334.932 206.927L334.423 211.429L334.463 213.32C334.464 213.355 334.446 213.388 334.417 213.407C334.387 213.427 334.35 213.429 334.318 213.414L327.891 210.374C327.856 210.357 327.833 210.322 327.833 210.283C327.833 210.243 327.855 210.208 327.89 210.19L334.786 206.824C334.819 206.808 334.859 206.811 334.889 206.832ZM342.564 207.09L343.093 211.412C343.093 211.417 343.093 211.423 343.093 211.428L343.037 213.158L349.121 210.281L342.564 207.09ZM328.17 210.281L334.256 213.159L334.218 211.413L334.708 207.089L328.17 210.281Z" fill="#D7C1B3"/>
<path d="M334.463 199.286L328.71 197.592L332.77 195.736L334.463 199.286ZM342.808 199.286L344.501 195.736L348.581 197.592L342.808 199.286Z" fill="#233447"/>
<path fill-rule="evenodd" clip-rule="evenodd" d="M332.728 195.643C332.778 195.62 332.838 195.641 332.862 195.692L334.556 199.242C334.573 199.278 334.567 199.321 334.541 199.352C334.515 199.382 334.473 199.395 334.435 199.383L328.681 197.69C328.641 197.678 328.611 197.642 328.608 197.599C328.605 197.557 328.629 197.517 328.668 197.499L332.728 195.643ZM344.409 195.692C344.433 195.641 344.493 195.62 344.543 195.643L348.624 197.499C348.663 197.517 348.686 197.557 348.683 197.599C348.68 197.642 348.651 197.678 348.61 197.69L342.836 199.383C342.798 199.395 342.756 199.382 342.73 199.352C342.704 199.321 342.698 199.278 342.716 199.242L344.409 195.692ZM344.55 195.87L342.998 199.123L348.29 197.571L344.55 195.87ZM329.001 197.571L334.273 199.123L332.721 195.87L329.001 197.571Z" fill="#233447"/>
<path d="M327.935 210.282L328.914 201.999L322.528 202.183L327.935 210.282ZM348.377 201.999L349.357 210.282L354.763 202.183L348.377 201.999ZM353.233 192.879L341.767 193.389L342.828 199.286L344.521 195.736L348.602 197.592L353.233 192.879ZM328.71 197.592L332.79 195.736L334.463 199.286L335.545 193.389L324.058 192.879L328.71 197.592Z" fill="#CD6116"/>
<path fill-rule="evenodd" clip-rule="evenodd" d="M323.965 192.838C323.982 192.8 324.021 192.776 324.063 192.777L335.549 193.287C335.579 193.289 335.606 193.303 335.624 193.326C335.643 193.349 335.65 193.379 335.645 193.408L334.564 199.304C334.556 199.347 334.52 199.381 334.476 199.387C334.433 199.392 334.39 199.369 334.371 199.329L332.741 195.87L328.752 197.685C328.713 197.703 328.667 197.694 328.637 197.664L323.986 192.951C323.956 192.921 323.948 192.876 323.965 192.838ZM353.326 192.838C353.343 192.876 353.335 192.921 353.306 192.951L348.674 197.664C348.644 197.694 348.598 197.703 348.559 197.685L344.57 195.87L342.92 199.329C342.901 199.369 342.858 199.393 342.814 199.387C342.771 199.381 342.735 199.347 342.728 199.304L341.667 193.407C341.662 193.379 341.669 193.349 341.687 193.326C341.706 193.303 341.733 193.289 341.763 193.287L353.228 192.777C353.27 192.776 353.309 192.8 353.326 192.838ZM324.314 192.993L328.733 197.47L332.748 195.643C332.799 195.62 332.859 195.642 332.883 195.692L334.42 198.955L335.423 193.486L324.314 192.993ZM341.888 193.486L342.872 198.956L344.429 195.692C344.453 195.641 344.513 195.62 344.564 195.643L348.579 197.47L352.978 192.993L341.888 193.486ZM328.989 201.93C329.009 201.952 329.019 201.981 329.015 202.011L328.036 210.294C328.031 210.336 328 210.371 327.959 210.381C327.917 210.391 327.874 210.374 327.85 210.339L322.443 202.239C322.423 202.208 322.421 202.169 322.438 202.136C322.455 202.103 322.488 202.082 322.525 202.081L328.911 201.897C328.941 201.896 328.969 201.908 328.989 201.93ZM348.302 201.93C348.322 201.908 348.351 201.896 348.38 201.897L354.766 202.081C354.803 202.082 354.837 202.103 354.854 202.136C354.871 202.169 354.868 202.208 354.848 202.239L349.441 210.339C349.418 210.374 349.374 210.391 349.333 210.381C349.291 210.371 349.26 210.336 349.255 210.294L348.276 202.011C348.273 201.981 348.282 201.952 348.302 201.93ZM322.715 202.279L327.866 209.995L328.799 202.104L322.715 202.279ZM348.492 202.104L349.425 209.995L354.576 202.279L348.492 202.104Z" fill="#CD6116"/>
<path d="M324.058 192.879L328.873 202.264L328.71 197.592L324.058 192.879ZM348.602 197.592L348.398 202.264L353.233 192.879L348.602 197.592ZM335.545 193.389L334.463 199.286L335.81 206.243L336.116 197.082L335.545 193.389ZM341.767 193.389L341.216 197.062L341.461 206.243L342.828 199.286L341.767 193.389Z" fill="#E4751F"/>
<path fill-rule="evenodd" clip-rule="evenodd" d="M353.293 192.797C353.334 192.826 353.347 192.881 353.324 192.926L348.488 202.311C348.466 202.353 348.418 202.375 348.372 202.363C348.325 202.35 348.294 202.308 348.296 202.26L348.5 197.588C348.501 197.563 348.511 197.539 348.529 197.521L353.16 192.808C353.196 192.772 353.252 192.767 353.293 192.797ZM323.999 192.797C324.039 192.767 324.096 192.772 324.131 192.808L328.783 197.52C328.801 197.539 328.811 197.563 328.812 197.589L328.975 202.261C328.977 202.308 328.945 202.351 328.899 202.363C328.853 202.375 328.804 202.353 328.782 202.311L323.968 192.926C323.945 192.881 323.958 192.826 323.999 192.797ZM324.452 193.424L328.755 201.811L328.609 197.635L324.452 193.424ZM348.702 197.636L348.52 201.804L352.834 193.431L348.702 197.636ZM341.766 193.287C341.816 193.287 341.859 193.322 341.868 193.371L342.928 199.267C342.931 199.28 342.931 199.293 342.928 199.305L341.561 206.262C341.551 206.313 341.504 206.349 341.453 206.344C341.401 206.34 341.361 206.297 341.359 206.245L341.114 197.064C341.114 197.058 341.115 197.052 341.115 197.047L341.666 193.374C341.674 193.325 341.716 193.288 341.766 193.287ZM335.546 193.287C335.596 193.288 335.638 193.325 335.645 193.374L336.217 197.067C336.218 197.073 336.218 197.079 336.218 197.086L335.912 206.246C335.91 206.298 335.87 206.34 335.818 206.344C335.766 206.348 335.72 206.313 335.71 206.262L334.363 199.305C334.361 199.292 334.361 199.28 334.363 199.267L335.444 193.371C335.453 193.322 335.496 193.287 335.546 193.287ZM334.567 199.285L335.738 205.335L336.014 197.088L335.536 194.001L334.567 199.285ZM341.776 194.016L341.319 197.068L341.539 205.319L342.724 199.285L341.776 194.016Z" fill="#E4751F"/>
<path d="M342.828 199.285L341.461 206.242L342.44 206.916L348.398 202.264L348.602 197.592L342.828 199.285ZM328.71 197.592L328.873 202.264L334.831 206.916L335.81 206.242L334.463 199.285L328.71 197.592Z" fill="#F6851B"/>
<path fill-rule="evenodd" clip-rule="evenodd" d="M348.665 197.512C348.691 197.532 348.705 197.564 348.704 197.596L348.5 202.268C348.498 202.298 348.484 202.326 348.461 202.344L342.503 206.996C342.468 207.023 342.419 207.025 342.383 207L341.403 206.326C341.37 206.303 341.353 206.263 341.361 206.223L342.728 199.266C342.735 199.228 342.763 199.198 342.799 199.187L348.573 197.494C348.605 197.485 348.639 197.491 348.665 197.512ZM328.648 197.511C328.674 197.491 328.708 197.485 328.739 197.494L334.492 199.187C334.529 199.198 334.556 199.229 334.564 199.266L335.91 206.223C335.918 206.263 335.901 206.303 335.868 206.326L334.888 207C334.852 207.025 334.803 207.023 334.768 206.996L328.811 202.344C328.787 202.326 328.772 202.298 328.771 202.268L328.608 197.596C328.607 197.563 328.622 197.531 328.648 197.511ZM342.916 199.366L341.574 206.196L342.437 206.789L348.298 202.213L348.494 197.73L342.916 199.366ZM328.817 197.73L334.375 199.366L335.697 206.196L334.835 206.789L328.974 202.213L328.817 197.73Z" fill="#F6851B"/>
<path d="M342.93 213.322L342.991 211.424L342.481 210.976H334.79L334.321 211.424L334.361 213.322L327.935 210.282L330.179 212.118L334.729 215.28H342.542L347.112 212.118L349.357 210.282L342.93 213.322Z" fill="#C0AD9E"/>
<path fill-rule="evenodd" clip-rule="evenodd" d="M327.849 210.227C327.876 210.184 327.932 210.168 327.978 210.19L334.256 213.159L334.219 211.427C334.218 211.398 334.229 211.371 334.25 211.351L334.719 210.902C334.738 210.884 334.763 210.874 334.79 210.874H342.481C342.506 210.874 342.53 210.883 342.549 210.899L343.059 211.348C343.082 211.368 343.094 211.397 343.093 211.428L343.037 213.158L349.313 210.19C349.36 210.168 349.415 210.184 349.443 210.227C349.47 210.271 349.461 210.328 349.421 210.361L347.171 212.202L342.6 215.364C342.583 215.376 342.563 215.382 342.542 215.382H334.729C334.708 215.382 334.687 215.376 334.67 215.364L330.114 212.197L327.87 210.361C327.83 210.328 327.821 210.271 327.849 210.227ZM328.644 210.73L330.24 212.037L334.761 215.178H342.511L347.051 212.037L348.648 210.73L342.974 213.414C342.942 213.429 342.904 213.427 342.874 213.407C342.844 213.388 342.827 213.354 342.828 213.319L342.888 211.469L342.443 211.078H334.831L334.423 211.467L334.463 213.32C334.464 213.355 334.446 213.388 334.417 213.407C334.387 213.427 334.35 213.429 334.318 213.414L328.644 210.73Z" fill="#C0AD9E"/>
<path d="M342.44 206.916L341.461 206.242H335.81L334.831 206.916L334.321 211.424L334.79 210.976H342.481L342.991 211.424L342.44 206.916Z" fill="#161616"/>
<path fill-rule="evenodd" clip-rule="evenodd" d="M335.752 206.158C335.769 206.147 335.789 206.14 335.81 206.14H341.461C341.482 206.14 341.502 206.147 341.519 206.158L342.498 206.832C342.522 206.848 342.538 206.874 342.542 206.903L343.093 211.412C343.098 211.454 343.076 211.495 343.039 211.515C343.002 211.534 342.956 211.529 342.924 211.501L342.443 211.078H334.831L334.391 211.498C334.36 211.528 334.314 211.535 334.275 211.516C334.237 211.497 334.214 211.456 334.219 211.413L334.729 206.904C334.733 206.875 334.749 206.848 334.773 206.832L335.752 206.158ZM335.842 206.344L334.927 206.973L334.454 211.156L334.719 210.902C334.738 210.884 334.764 210.874 334.79 210.874H342.481C342.506 210.874 342.53 210.883 342.549 210.899L342.858 211.171L342.345 206.974L341.43 206.344H335.842Z" fill="#161616"/>
<path d="M362.924 183.107L364.658 174.783L362.067 167.051L342.44 181.618L349.989 188.003L360.659 191.125L363.026 188.371L362.006 187.636L363.638 186.147L362.373 185.168L364.005 183.923L362.924 183.107ZM312.633 174.783L314.368 183.107L313.266 183.923L314.898 185.168L313.654 186.147L315.286 187.636L314.266 188.371L316.612 191.125L327.282 188.003L334.831 181.618L315.204 167.051L312.633 174.783Z" fill="#763D16"/>
<path fill-rule="evenodd" clip-rule="evenodd" d="M315.173 166.953C315.205 166.944 315.239 166.949 315.265 166.969L334.891 181.536C334.916 181.554 334.932 181.583 334.933 181.614C334.934 181.645 334.92 181.675 334.896 181.695L327.348 188.081C327.337 188.09 327.324 188.097 327.311 188.101L316.64 191.223C316.602 191.234 316.56 191.222 316.534 191.191L314.188 188.437C314.17 188.415 314.161 188.387 314.164 188.358C314.168 188.33 314.183 188.304 314.206 188.288L315.124 187.627L313.585 186.222C313.563 186.202 313.551 186.173 313.552 186.143C313.553 186.113 313.567 186.085 313.591 186.067L314.732 185.169L313.204 184.004C313.179 183.985 313.164 183.954 313.164 183.922C313.164 183.89 313.179 183.86 313.205 183.841L314.254 183.064L312.534 174.804C312.53 174.786 312.531 174.768 312.537 174.751L315.107 167.019C315.118 166.988 315.142 166.963 315.173 166.953ZM362.098 166.953C362.129 166.963 362.153 166.987 362.164 167.018L364.755 174.751C364.76 174.768 364.762 174.786 364.758 174.804L363.037 183.064L364.067 183.842C364.092 183.861 364.107 183.891 364.107 183.923C364.107 183.955 364.092 183.985 364.067 184.004L362.54 185.168L363.7 186.066C363.724 186.085 363.739 186.113 363.74 186.143C363.741 186.173 363.729 186.202 363.707 186.222L362.167 187.627L363.085 188.288C363.109 188.304 363.124 188.33 363.127 188.359C363.131 188.387 363.122 188.415 363.103 188.437L360.737 191.191C360.711 191.222 360.669 191.234 360.631 191.223L349.96 188.101C349.947 188.097 349.934 188.09 349.923 188.081L342.375 181.695C342.351 181.675 342.338 181.645 342.339 181.614C342.34 181.583 342.355 181.554 342.38 181.536L362.006 166.969C362.032 166.949 362.066 166.944 362.098 166.953ZM342.605 181.623L350.039 187.912L360.625 191.008L362.876 188.388L361.946 187.719C361.921 187.701 361.906 187.673 361.904 187.642C361.902 187.611 361.914 187.581 361.937 187.561L363.48 186.153L362.311 185.248C362.285 185.229 362.271 185.199 362.271 185.167C362.271 185.135 362.286 185.106 362.311 185.086L363.836 183.923L362.862 183.188C362.831 183.165 362.816 183.125 362.824 183.086L364.552 174.789L362.015 167.216L342.605 181.623ZM315.256 167.217L312.739 174.789L314.468 183.086C314.476 183.125 314.46 183.165 314.428 183.189L313.436 183.924L314.96 185.086C314.985 185.106 315 185.135 315 185.167C315 185.198 314.986 185.228 314.961 185.248L313.811 186.153L315.354 187.561C315.377 187.581 315.389 187.611 315.388 187.642C315.386 187.673 315.37 187.701 315.345 187.719L314.415 188.389L316.647 191.008L327.233 187.912L334.666 181.623L315.256 167.217Z" fill="#763D16"/>
<path d="M360.659 191.125L349.989 188.003L353.233 192.879L348.398 202.264L354.763 202.183H364.25L360.659 191.125ZM327.282 188.003L316.612 191.125L313.062 202.183H322.528L328.873 202.264L324.058 192.879L327.282 188.003ZM341.767 193.389L342.44 181.618L345.541 173.232H331.77L334.831 181.618L335.545 193.389L335.789 197.102L335.81 206.242H341.461L341.502 197.102L341.767 193.389Z" fill="#F6851B"/>
<path fill-rule="evenodd" clip-rule="evenodd" d="M331.687 173.174C331.706 173.147 331.737 173.13 331.77 173.13H345.542C345.575 173.13 345.606 173.147 345.625 173.174C345.644 173.201 345.649 173.236 345.637 173.268L342.541 181.639L341.869 193.395L341.869 193.397L341.604 197.106L341.563 206.243C341.563 206.299 341.517 206.344 341.461 206.344H335.81C335.754 206.344 335.708 206.299 335.708 206.243L335.688 197.106L335.443 193.396L334.73 181.639L331.675 173.267C331.663 173.236 331.668 173.201 331.687 173.174ZM331.916 173.334L334.926 181.583C334.93 181.592 334.932 181.601 334.932 181.611L335.646 193.383L335.892 197.102L335.912 206.14H341.36L341.4 197.095L341.665 193.383L341.665 193.382L342.339 181.612C342.339 181.602 342.341 181.592 342.345 181.582L345.395 173.334H331.916ZM327.364 187.943C327.389 187.977 327.391 188.024 327.367 188.06L324.177 192.886L328.964 202.218C328.98 202.249 328.979 202.287 328.96 202.318C328.941 202.348 328.908 202.367 328.872 202.366L322.528 202.284H313.062C313.029 202.284 312.999 202.269 312.98 202.243C312.96 202.216 312.955 202.182 312.965 202.151L316.515 191.094C316.525 191.061 316.551 191.036 316.583 191.027L327.253 187.905C327.294 187.893 327.339 187.908 327.364 187.943ZM349.907 187.943C349.932 187.908 349.977 187.893 350.018 187.905L360.688 191.027C360.72 191.036 360.746 191.061 360.756 191.093L364.347 202.151C364.357 202.182 364.352 202.216 364.332 202.242C364.313 202.269 364.283 202.284 364.25 202.284H354.764L348.399 202.366C348.363 202.367 348.33 202.348 348.311 202.318C348.292 202.287 348.291 202.249 348.307 202.217L353.115 192.886L349.904 188.06C349.88 188.024 349.882 187.977 349.907 187.943ZM316.692 191.207L313.202 202.08H322.53L328.705 202.16L323.968 192.926C323.951 192.893 323.953 192.854 323.973 192.823L327.043 188.179L316.692 191.207ZM350.229 188.18L353.318 192.823C353.338 192.854 353.341 192.893 353.324 192.926L348.566 202.16L354.763 202.08L364.11 202.08L360.579 191.207L350.229 188.18Z" fill="#F6851B"/>
</g>
<g filter="url(#filter2_d_115_12)">
<rect x="85" y="151.808" width="302.146" height="81" rx="10" fill="white" shape-rendering="crispEdges"/>
<rect x="84.5" y="151.308" width="303.146" height="82" rx="10.5" stroke="#F3F3F3" shape-rendering="crispEdges"/>
<path d="M189.986 199.168V185.168H192.046V193.148H192.366L196.246 189.308H198.986L194.006 194.088L199.146 199.168H196.426L192.366 195.068H192.046V199.168H189.986Z" fill="black"/>
<path d="M183.518 199.448C182.265 199.448 181.225 199.168 180.398 198.608C179.571 198.048 179.065 197.202 178.878 196.068L180.798 195.608C180.905 196.155 181.085 196.588 181.338 196.908C181.591 197.228 181.905 197.455 182.278 197.588C182.665 197.722 183.078 197.788 183.518 197.788C184.171 197.788 184.671 197.662 185.018 197.408C185.378 197.155 185.558 196.828 185.558 196.428C185.558 196.028 185.391 195.735 185.058 195.548C184.725 195.362 184.231 195.208 183.578 195.088L182.898 194.968C182.231 194.848 181.625 194.675 181.078 194.448C180.531 194.222 180.098 193.908 179.778 193.508C179.458 193.108 179.298 192.595 179.298 191.968C179.298 191.035 179.645 190.315 180.338 189.808C181.031 189.288 181.951 189.028 183.098 189.028C184.205 189.028 185.111 189.282 185.818 189.788C186.538 190.282 187.005 190.955 187.218 191.808L185.298 192.348C185.178 191.748 184.925 191.328 184.538 191.088C184.151 190.835 183.671 190.708 183.098 190.708C182.538 190.708 182.098 190.815 181.778 191.028C181.458 191.228 181.298 191.515 181.298 191.888C181.298 192.288 181.451 192.582 181.758 192.768C182.078 192.955 182.505 193.095 183.038 193.188L183.738 193.308C184.445 193.428 185.091 193.595 185.678 193.808C186.265 194.022 186.725 194.328 187.058 194.728C187.405 195.128 187.578 195.662 187.578 196.328C187.578 197.315 187.211 198.082 186.478 198.628C185.745 199.175 184.758 199.448 183.518 199.448Z" fill="black"/>
<path d="M171.073 199.448C170.366 199.448 169.733 199.328 169.173 199.088C168.626 198.848 168.186 198.495 167.853 198.028C167.533 197.562 167.373 196.995 167.373 196.328C167.373 195.648 167.533 195.088 167.853 194.648C168.186 194.195 168.633 193.855 169.193 193.628C169.766 193.402 170.413 193.288 171.133 193.288H174.133V192.648C174.133 192.075 173.96 191.615 173.613 191.268C173.266 190.922 172.733 190.748 172.013 190.748C171.306 190.748 170.766 190.915 170.393 191.248C170.02 191.582 169.773 192.015 169.653 192.548L167.733 191.928C167.893 191.395 168.146 190.915 168.493 190.488C168.853 190.048 169.326 189.695 169.913 189.428C170.5 189.162 171.206 189.028 172.033 189.028C173.313 189.028 174.32 189.355 175.053 190.008C175.786 190.662 176.153 191.588 176.153 192.788V196.848C176.153 197.248 176.34 197.448 176.713 197.448H177.553V199.168H176.013C175.546 199.168 175.166 199.048 174.873 198.808C174.58 198.568 174.433 198.242 174.433 197.828V197.768H174.133C174.026 197.968 173.866 198.202 173.653 198.468C173.44 198.735 173.126 198.968 172.713 199.168C172.3 199.355 171.753 199.448 171.073 199.448ZM171.373 197.748C172.2 197.748 172.866 197.515 173.373 197.048C173.88 196.568 174.133 195.915 174.133 195.088V194.888H171.253C170.706 194.888 170.266 195.008 169.933 195.248C169.6 195.475 169.433 195.815 169.433 196.268C169.433 196.722 169.606 197.082 169.953 197.348C170.3 197.615 170.773 197.748 171.373 197.748Z" fill="black"/>
<path d="M150.473 199.168V185.168H154.533L157.593 197.728H157.913L160.973 185.168H165.033V199.168H162.933V186.688H162.613L159.573 199.168H155.933L152.893 186.688H152.573V199.168H150.473Z" fill="black"/>
<path d="M142.05 199.448C141.343 199.448 140.71 199.328 140.15 199.088C139.603 198.848 139.163 198.495 138.83 198.028C138.51 197.562 138.35 196.995 138.35 196.328C138.35 195.648 138.51 195.088 138.83 194.648C139.163 194.195 139.61 193.855 140.17 193.628C140.743 193.402 141.39 193.288 142.11 193.288H145.11V192.648C145.11 192.075 144.936 191.615 144.59 191.268C144.243 190.922 143.71 190.748 142.99 190.748C142.283 190.748 141.743 190.915 141.37 191.248C140.996 191.582 140.75 192.015 140.63 192.548L138.71 191.928C138.87 191.395 139.123 190.915 139.47 190.488C139.83 190.048 140.303 189.695 140.89 189.428C141.476 189.162 142.183 189.028 143.01 189.028C144.29 189.028 145.296 189.355 146.03 190.008C146.763 190.662 147.13 191.588 147.13 192.788V196.848C147.13 197.248 147.316 197.448 147.69 197.448H148.53V199.168H146.99C146.523 199.168 146.143 199.048 145.85 198.808C145.556 198.568 145.41 198.242 145.41 197.828V197.768H145.11C145.003 197.968 144.843 198.202 144.63 198.468C144.416 198.735 144.103 198.968 143.69 199.168C143.276 199.355 142.73 199.448 142.05 199.448ZM142.35 197.748C143.176 197.748 143.843 197.515 144.35 197.048C144.856 196.568 145.11 195.915 145.11 195.088V194.888H142.23C141.683 194.888 141.243 195.008 140.91 195.248C140.576 195.475 140.41 195.815 140.41 196.268C140.41 196.722 140.583 197.082 140.93 197.348C141.276 197.615 141.75 197.748 142.35 197.748Z" fill="black"/>
<path d="M133.549 199.168C132.949 199.168 132.469 198.988 132.109 198.628C131.762 198.268 131.589 197.788 131.589 197.188V191.048H128.869V189.308H131.589V186.048H133.649V189.308H136.589V191.048H133.649V196.828C133.649 197.228 133.836 197.428 134.209 197.428H136.269V199.168H133.549Z" fill="black"/>
<path d="M123.06 199.448C122.06 199.448 121.187 199.242 120.44 198.828C119.694 198.402 119.107 197.808 118.68 197.048C118.267 196.275 118.06 195.382 118.06 194.368V194.128C118.06 193.102 118.267 192.208 118.68 191.448C119.094 190.675 119.667 190.082 120.4 189.668C121.147 189.242 122.007 189.028 122.98 189.028C123.927 189.028 124.754 189.242 125.46 189.668C126.18 190.082 126.74 190.662 127.14 191.408C127.54 192.155 127.74 193.028 127.74 194.028V194.808H120.16C120.187 195.675 120.474 196.368 121.02 196.888C121.58 197.395 122.274 197.648 123.1 197.648C123.874 197.648 124.454 197.475 124.84 197.128C125.24 196.782 125.547 196.382 125.76 195.928L127.46 196.808C127.274 197.182 127 197.575 126.64 197.988C126.294 198.402 125.834 198.748 125.26 199.028C124.687 199.308 123.954 199.448 123.06 199.448ZM120.18 193.228H125.64C125.587 192.482 125.32 191.902 124.84 191.488C124.36 191.062 123.734 190.848 122.96 190.848C122.187 190.848 121.554 191.062 121.06 191.488C120.58 191.902 120.287 192.482 120.18 193.228Z" fill="black"/>
<path d="M101 199.168V185.168H105.06L108.12 197.728H108.44L111.5 185.168H115.56V199.168H113.46V186.688H113.14L110.1 199.168H106.46L103.42 186.688H103.1V199.168H101Z" fill="black"/>
<path d="M362.067 167.051L341.767 182.128L345.521 173.233L362.067 167.051Z" fill="#E2761B"/>
<path fill-rule="evenodd" clip-rule="evenodd" d="M362.157 167.002C362.181 167.047 362.169 167.102 362.128 167.133L341.828 182.21C341.791 182.237 341.74 182.236 341.704 182.208C341.668 182.179 341.655 182.13 341.673 182.088L345.427 173.193C345.438 173.167 345.459 173.147 345.486 173.137L362.031 166.955C362.079 166.937 362.132 166.957 362.157 167.002ZM345.598 173.313L342.007 181.823L361.428 167.398L345.598 173.313Z" fill="#E2761B"/>
<path d="M315.204 167.051L335.341 182.27L331.77 173.233L315.204 167.051ZM354.763 201.999L349.357 210.282L360.924 213.465L364.25 202.183L354.763 201.999ZM313.062 202.183L316.367 213.465L327.935 210.282L322.528 201.999L313.062 202.183Z" fill="#E4761B"/>
<path fill-rule="evenodd" clip-rule="evenodd" d="M315.115 167.002C315.139 166.957 315.192 166.937 315.24 166.955L331.806 173.137C331.833 173.147 331.855 173.168 331.865 173.195L335.436 182.233C335.452 182.276 335.439 182.324 335.402 182.352C335.366 182.379 335.316 182.379 335.279 182.352L315.143 167.132C315.102 167.102 315.09 167.046 315.115 167.002ZM315.823 167.39L335.112 181.97L331.692 173.312L315.823 167.39ZM322.526 201.897C322.562 201.896 322.595 201.914 322.614 201.943L328.02 210.226C328.038 210.254 328.042 210.288 328.03 210.318C328.019 210.349 327.993 210.372 327.962 210.38L316.394 213.563C316.34 213.578 316.285 213.547 316.269 213.493L312.964 202.211C312.955 202.181 312.961 202.148 312.98 202.122C312.999 202.097 313.028 202.081 313.06 202.081L322.526 201.897ZM354.678 201.943C354.697 201.914 354.73 201.896 354.765 201.897L364.252 202.081C364.284 202.081 364.313 202.097 364.332 202.122C364.351 202.148 364.357 202.181 364.348 202.211L361.022 213.494C361.007 213.547 360.951 213.578 360.897 213.563L349.33 210.38C349.298 210.372 349.273 210.349 349.261 210.318C349.25 210.288 349.253 210.254 349.271 210.226L354.678 201.943ZM313.197 202.282L316.437 213.34L327.773 210.221L322.474 202.102L313.197 202.282ZM354.818 202.102L349.519 210.221L360.855 213.34L364.114 202.282L354.818 202.102Z" fill="#E4761B"/>
<path d="M327.282 188.003L324.058 192.879L335.545 193.389L335.137 181.046L327.282 188.003ZM349.989 188.003L342.032 180.904L341.767 193.389L353.233 192.879L349.989 188.003ZM327.935 210.282L334.831 206.916L328.873 202.264L327.935 210.282ZM342.44 206.916L349.357 210.282L348.398 202.264L342.44 206.916Z" fill="#E4761B"/>
<path fill-rule="evenodd" clip-rule="evenodd" d="M341.992 180.81C342.028 180.794 342.071 180.801 342.1 180.827L350.057 187.927C350.063 187.933 350.069 187.94 350.074 187.947L353.318 192.823C353.338 192.853 353.341 192.893 353.324 192.926C353.307 192.958 353.274 192.98 353.237 192.981L341.772 193.491C341.743 193.493 341.716 193.482 341.696 193.462C341.676 193.443 341.665 193.415 341.665 193.387L341.93 180.901C341.931 180.862 341.955 180.826 341.992 180.81ZM342.13 181.127L341.871 193.283L353.048 192.785L349.911 188.071L342.13 181.127ZM335.177 180.953C335.213 180.968 335.237 181.003 335.239 181.043L335.647 193.386C335.648 193.414 335.637 193.442 335.616 193.462C335.596 193.482 335.568 193.493 335.54 193.491L324.054 192.981C324.017 192.98 323.984 192.958 323.968 192.926C323.951 192.893 323.953 192.854 323.973 192.823L327.197 187.947C327.202 187.94 327.208 187.933 327.214 187.927L335.069 180.97C335.099 180.944 335.141 180.937 335.177 180.953ZM327.36 188.071L324.243 192.785L335.439 193.283L335.042 181.267L327.36 188.071ZM348.437 202.17C348.471 202.184 348.495 202.215 348.499 202.252L349.458 210.27C349.462 210.307 349.446 210.344 349.416 210.365C349.385 210.387 349.346 210.39 349.312 210.374L342.396 207.007C342.364 206.992 342.343 206.961 342.339 206.926C342.335 206.891 342.35 206.857 342.378 206.835L348.335 202.184C348.364 202.161 348.403 202.156 348.437 202.17ZM328.834 202.17C328.868 202.156 328.907 202.161 328.936 202.184L334.893 206.835C334.921 206.857 334.936 206.891 334.932 206.926C334.928 206.961 334.907 206.992 334.875 207.007L327.98 210.374C327.946 210.39 327.906 210.387 327.876 210.365C327.845 210.344 327.829 210.307 327.833 210.27L328.772 202.252C328.776 202.216 328.8 202.184 328.834 202.17ZM328.953 202.456L328.058 210.108L334.639 206.896L328.953 202.456ZM342.632 206.896L349.233 210.108L348.318 202.456L342.632 206.896Z" fill="#E4761B"/>
<path d="M349.357 210.282L342.44 206.916L342.991 211.425L342.93 213.322L349.357 210.282ZM327.935 210.282L334.361 213.322L334.321 211.425L334.831 206.916L327.935 210.282Z" fill="#D7C1B3"/>
<path fill-rule="evenodd" clip-rule="evenodd" d="M342.381 206.833C342.412 206.811 342.451 206.808 342.485 206.824L349.401 210.19C349.437 210.207 349.459 210.243 349.459 210.283C349.458 210.322 349.436 210.357 349.4 210.374L342.974 213.414C342.942 213.429 342.904 213.427 342.874 213.407C342.844 213.388 342.827 213.354 342.828 213.319L342.889 211.429L342.339 206.928C342.335 206.891 342.351 206.854 342.381 206.833ZM334.889 206.832C334.92 206.854 334.936 206.89 334.932 206.927L334.423 211.429L334.463 213.32C334.464 213.355 334.446 213.388 334.417 213.407C334.387 213.427 334.35 213.429 334.318 213.414L327.891 210.374C327.856 210.357 327.833 210.322 327.833 210.283C327.833 210.243 327.855 210.208 327.89 210.19L334.786 206.824C334.819 206.808 334.859 206.811 334.889 206.832ZM342.564 207.09L343.093 211.412C343.093 211.417 343.093 211.423 343.093 211.428L343.037 213.158L349.121 210.281L342.564 207.09ZM328.17 210.281L334.256 213.159L334.218 211.413L334.708 207.089L328.17 210.281Z" fill="#D7C1B3"/>
<path d="M334.463 199.286L328.71 197.592L332.77 195.736L334.463 199.286ZM342.808 199.286L344.501 195.736L348.581 197.592L342.808 199.286Z" fill="#233447"/>
<path fill-rule="evenodd" clip-rule="evenodd" d="M332.728 195.643C332.778 195.62 332.838 195.641 332.862 195.692L334.556 199.242C334.573 199.278 334.567 199.321 334.541 199.352C334.515 199.382 334.473 199.395 334.435 199.383L328.681 197.69C328.641 197.678 328.611 197.642 328.608 197.599C328.605 197.557 328.629 197.517 328.668 197.499L332.728 195.643ZM344.409 195.692C344.433 195.641 344.493 195.62 344.543 195.643L348.624 197.499C348.663 197.517 348.686 197.557 348.683 197.599C348.68 197.642 348.651 197.678 348.61 197.69L342.836 199.383C342.798 199.395 342.756 199.382 342.73 199.352C342.704 199.321 342.698 199.278 342.716 199.242L344.409 195.692ZM344.55 195.87L342.998 199.123L348.29 197.571L344.55 195.87ZM329.001 197.571L334.273 199.123L332.721 195.87L329.001 197.571Z" fill="#233447"/>
<path d="M327.935 210.282L328.914 201.999L322.528 202.183L327.935 210.282ZM348.377 201.999L349.357 210.282L354.763 202.183L348.377 201.999ZM353.233 192.879L341.767 193.389L342.828 199.286L344.521 195.736L348.602 197.592L353.233 192.879ZM328.71 197.592L332.79 195.736L334.463 199.286L335.545 193.389L324.058 192.879L328.71 197.592Z" fill="#CD6116"/>
<path fill-rule="evenodd" clip-rule="evenodd" d="M323.965 192.838C323.982 192.8 324.021 192.776 324.063 192.777L335.549 193.287C335.579 193.289 335.606 193.303 335.624 193.326C335.643 193.349 335.65 193.379 335.645 193.408L334.564 199.304C334.556 199.347 334.52 199.381 334.476 199.387C334.433 199.392 334.39 199.369 334.371 199.329L332.741 195.87L328.752 197.685C328.713 197.703 328.667 197.694 328.637 197.664L323.986 192.951C323.956 192.921 323.948 192.876 323.965 192.838ZM353.326 192.838C353.343 192.876 353.335 192.921 353.306 192.951L348.674 197.664C348.644 197.694 348.598 197.703 348.559 197.685L344.57 195.87L342.92 199.329C342.901 199.369 342.858 199.393 342.814 199.387C342.771 199.381 342.735 199.347 342.728 199.304L341.667 193.407C341.662 193.379 341.669 193.349 341.687 193.326C341.706 193.303 341.733 193.289 341.763 193.287L353.228 192.777C353.27 192.776 353.309 192.8 353.326 192.838ZM324.314 192.993L328.733 197.47L332.748 195.643C332.799 195.62 332.859 195.642 332.883 195.692L334.42 198.955L335.423 193.486L324.314 192.993ZM341.888 193.486L342.872 198.956L344.429 195.692C344.453 195.641 344.513 195.62 344.564 195.643L348.579 197.47L352.978 192.993L341.888 193.486ZM328.989 201.93C329.009 201.952 329.019 201.981 329.015 202.011L328.036 210.294C328.031 210.336 328 210.371 327.959 210.381C327.917 210.391 327.874 210.374 327.85 210.339L322.443 202.239C322.423 202.208 322.421 202.169 322.438 202.136C322.455 202.103 322.488 202.082 322.525 202.081L328.911 201.897C328.941 201.896 328.969 201.908 328.989 201.93ZM348.302 201.93C348.322 201.908 348.351 201.896 348.38 201.897L354.766 202.081C354.803 202.082 354.837 202.103 354.854 202.136C354.871 202.169 354.868 202.208 354.848 202.239L349.441 210.339C349.418 210.374 349.374 210.391 349.333 210.381C349.291 210.371 349.26 210.336 349.255 210.294L348.276 202.011C348.273 201.981 348.282 201.952 348.302 201.93ZM322.715 202.279L327.866 209.995L328.799 202.104L322.715 202.279ZM348.492 202.104L349.425 209.995L354.576 202.279L348.492 202.104Z" fill="#CD6116"/>
<path d="M324.058 192.879L328.873 202.264L328.71 197.592L324.058 192.879ZM348.602 197.592L348.398 202.264L353.233 192.879L348.602 197.592ZM335.545 193.389L334.463 199.286L335.81 206.243L336.116 197.082L335.545 193.389ZM341.767 193.389L341.216 197.062L341.461 206.243L342.828 199.286L341.767 193.389Z" fill="#E4751F"/>
<path fill-rule="evenodd" clip-rule="evenodd" d="M353.293 192.797C353.334 192.826 353.347 192.881 353.324 192.926L348.488 202.311C348.466 202.353 348.418 202.375 348.372 202.363C348.325 202.35 348.294 202.308 348.296 202.26L348.5 197.588C348.501 197.563 348.511 197.539 348.529 197.521L353.16 192.808C353.196 192.772 353.252 192.767 353.293 192.797ZM323.999 192.797C324.039 192.767 324.096 192.772 324.131 192.808L328.783 197.52C328.801 197.539 328.811 197.563 328.812 197.589L328.975 202.261C328.977 202.308 328.945 202.351 328.899 202.363C328.853 202.375 328.804 202.353 328.782 202.311L323.968 192.926C323.945 192.881 323.958 192.826 323.999 192.797ZM324.452 193.424L328.755 201.811L328.609 197.635L324.452 193.424ZM348.702 197.636L348.52 201.804L352.834 193.431L348.702 197.636ZM341.766 193.287C341.816 193.287 341.859 193.322 341.868 193.371L342.928 199.267C342.931 199.28 342.931 199.293 342.928 199.305L341.561 206.262C341.551 206.313 341.504 206.349 341.453 206.344C341.401 206.34 341.361 206.297 341.359 206.245L341.114 197.064C341.114 197.058 341.115 197.052 341.115 197.047L341.666 193.374C341.674 193.325 341.716 193.288 341.766 193.287ZM335.546 193.287C335.596 193.288 335.638 193.325 335.645 193.374L336.217 197.067C336.218 197.073 336.218 197.079 336.218 197.086L335.912 206.246C335.91 206.298 335.87 206.34 335.818 206.344C335.766 206.348 335.72 206.313 335.71 206.262L334.363 199.305C334.361 199.292 334.361 199.28 334.363 199.267L335.444 193.371C335.453 193.322 335.496 193.287 335.546 193.287ZM334.567 199.285L335.738 205.335L336.014 197.088L335.536 194.001L334.567 199.285ZM341.776 194.016L341.319 197.068L341.539 205.319L342.724 199.285L341.776 194.016Z" fill="#E4751F"/>
<path d="M342.828 199.285L341.461 206.242L342.44 206.916L348.398 202.264L348.602 197.592L342.828 199.285ZM328.71 197.592L328.873 202.264L334.831 206.916L335.81 206.242L334.463 199.285L328.71 197.592Z" fill="#F6851B"/>
<path fill-rule="evenodd" clip-rule="evenodd" d="M348.665 197.512C348.691 197.532 348.705 197.564 348.704 197.596L348.5 202.268C348.498 202.298 348.484 202.326 348.461 202.344L342.503 206.996C342.468 207.023 342.419 207.025 342.383 207L341.403 206.326C341.37 206.303 341.353 206.263 341.361 206.223L342.728 199.266C342.735 199.228 342.763 199.198 342.799 199.187L348.573 197.494C348.605 197.485 348.639 197.491 348.665 197.512ZM328.648 197.511C328.674 197.491 328.708 197.485 328.739 197.494L334.492 199.187C334.529 199.198 334.556 199.229 334.564 199.266L335.91 206.223C335.918 206.263 335.901 206.303 335.868 206.326L334.888 207C334.852 207.025 334.803 207.023 334.768 206.996L328.811 202.344C328.787 202.326 328.772 202.298 328.771 202.268L328.608 197.596C328.607 197.563 328.622 197.531 328.648 197.511ZM342.916 199.366L341.574 206.196L342.437 206.789L348.298 202.213L348.494 197.73L342.916 199.366ZM328.817 197.73L334.375 199.366L335.697 206.196L334.835 206.789L328.974 202.213L328.817 197.73Z" fill="#F6851B"/>
<path d="M342.93 213.322L342.991 211.424L342.481 210.976H334.79L334.321 211.424L334.361 213.322L327.935 210.282L330.179 212.118L334.729 215.28H342.542L347.112 212.118L349.357 210.282L342.93 213.322Z" fill="#C0AD9E"/>
<path fill-rule="evenodd" clip-rule="evenodd" d="M327.849 210.227C327.876 210.184 327.932 210.168 327.978 210.19L334.256 213.159L334.219 211.427C334.218 211.398 334.229 211.371 334.25 211.351L334.719 210.902C334.738 210.884 334.763 210.874 334.79 210.874H342.481C342.506 210.874 342.53 210.883 342.549 210.899L343.059 211.348C343.082 211.368 343.094 211.397 343.093 211.428L343.037 213.158L349.313 210.19C349.36 210.168 349.415 210.184 349.443 210.227C349.47 210.271 349.461 210.328 349.421 210.361L347.171 212.202L342.6 215.364C342.583 215.376 342.563 215.382 342.542 215.382H334.729C334.708 215.382 334.687 215.376 334.67 215.364L330.114 212.197L327.87 210.361C327.83 210.328 327.821 210.271 327.849 210.227ZM328.644 210.73L330.24 212.037L334.761 215.178H342.511L347.051 212.037L348.648 210.73L342.974 213.414C342.942 213.429 342.904 213.427 342.874 213.407C342.844 213.388 342.827 213.354 342.828 213.319L342.888 211.469L342.443 211.078H334.831L334.423 211.467L334.463 213.32C334.464 213.355 334.446 213.388 334.417 213.407C334.387 213.427 334.35 213.429 334.318 213.414L328.644 210.73Z" fill="#C0AD9E"/>
<path d="M342.44 206.916L341.461 206.242H335.81L334.831 206.916L334.321 211.424L334.79 210.976H342.481L342.991 211.424L342.44 206.916Z" fill="#161616"/>
<path fill-rule="evenodd" clip-rule="evenodd" d="M335.752 206.158C335.769 206.147 335.789 206.14 335.81 206.14H341.461C341.482 206.14 341.502 206.147 341.519 206.158L342.498 206.832C342.522 206.848 342.538 206.874 342.542 206.903L343.093 211.412C343.098 211.454 343.076 211.495 343.039 211.515C343.002 211.534 342.956 211.529 342.924 211.501L342.443 211.078H334.831L334.391 211.498C334.36 211.528 334.314 211.535 334.275 211.516C334.237 211.497 334.214 211.456 334.219 211.413L334.729 206.904C334.733 206.875 334.749 206.848 334.773 206.832L335.752 206.158ZM335.842 206.344L334.927 206.973L334.454 211.156L334.719 210.902C334.738 210.884 334.764 210.874 334.79 210.874H342.481C342.506 210.874 342.53 210.883 342.549 210.899L342.858 211.171L342.345 206.974L341.43 206.344H335.842Z" fill="#161616"/>
<path d="M362.924 183.107L364.658 174.783L362.067 167.051L342.44 181.618L349.989 188.003L360.659 191.125L363.026 188.371L362.006 187.636L363.638 186.147L362.373 185.168L364.005 183.923L362.924 183.107ZM312.633 174.783L314.368 183.107L313.266 183.923L314.898 185.168L313.654 186.147L315.286 187.636L314.266 188.371L316.612 191.125L327.282 188.003L334.831 181.618L315.204 167.051L312.633 174.783Z" fill="#763D16"/>
<path fill-rule="evenodd" clip-rule="evenodd" d="M315.173 166.953C315.205 166.944 315.239 166.949 315.265 166.969L334.891 181.536C334.916 181.554 334.932 181.583 334.933 181.614C334.934 181.645 334.92 181.675 334.896 181.695L327.348 188.081C327.337 188.09 327.324 188.097 327.311 188.101L316.64 191.223C316.602 191.234 316.56 191.222 316.534 191.191L314.188 188.437C314.17 188.415 314.161 188.387 314.164 188.358C314.168 188.33 314.183 188.304 314.206 188.288L315.124 187.627L313.585 186.222C313.563 186.202 313.551 186.173 313.552 186.143C313.553 186.113 313.567 186.085 313.591 186.067L314.732 185.169L313.204 184.004C313.179 183.985 313.164 183.954 313.164 183.922C313.164 183.89 313.179 183.86 313.205 183.841L314.254 183.064L312.534 174.804C312.53 174.786 312.531 174.768 312.537 174.751L315.107 167.019C315.118 166.988 315.142 166.963 315.173 166.953ZM362.098 166.953C362.129 166.963 362.153 166.987 362.164 167.018L364.755 174.751C364.76 174.768 364.762 174.786 364.758 174.804L363.037 183.064L364.067 183.842C364.092 183.861 364.107 183.891 364.107 183.923C364.107 183.955 364.092 183.985 364.067 184.004L362.54 185.168L363.7 186.066C363.724 186.085 363.739 186.113 363.74 186.143C363.741 186.173 363.729 186.202 363.707 186.222L362.167 187.627L363.085 188.288C363.109 188.304 363.124 188.33 363.127 188.359C363.131 188.387 363.122 188.415 363.103 188.437L360.737 191.191C360.711 191.222 360.669 191.234 360.631 191.223L349.96 188.101C349.947 188.097 349.934 188.09 349.923 188.081L342.375 181.695C342.351 181.675 342.338 181.645 342.339 181.614C342.34 181.583 342.355 181.554 342.38 181.536L362.006 166.969C362.032 166.949 362.066 166.944 362.098 166.953ZM342.605 181.623L350.039 187.912L360.625 191.008L362.876 188.388L361.946 187.719C361.921 187.701 361.906 187.673 361.904 187.642C361.902 187.611 361.914 187.581 361.937 187.561L363.48 186.153L362.311 185.248C362.285 185.229 362.271 185.199 362.271 185.167C362.271 185.135 362.286 185.106 362.311 185.086L363.836 183.923L362.862 183.188C362.831 183.165 362.816 183.125 362.824 183.086L364.552 174.789L362.015 167.216L342.605 181.623ZM315.256 167.217L312.739 174.789L314.468 183.086C314.476 183.125 314.46 183.165 314.428 183.189L313.436 183.924L314.96 185.086C314.985 185.106 315 185.135 315 185.167C315 185.198 314.986 185.228 314.961 185.248L313.811 186.153L315.354 187.561C315.377 187.581 315.389 187.611 315.388 187.642C315.386 187.673 315.37 187.701 315.345 187.719L314.415 188.389L316.647 191.008L327.233 187.912L334.666 181.623L315.256 167.217Z" fill="#763D16"/>
<path d="M360.659 191.125L349.989 188.003L353.233 192.879L348.398 202.264L354.763 202.183H364.25L360.659 191.125ZM327.282 188.003L316.612 191.125L313.062 202.183H322.528L328.873 202.264L324.058 192.879L327.282 188.003ZM341.767 193.389L342.44 181.618L345.541 173.232H331.77L334.831 181.618L335.545 193.389L335.789 197.102L335.81 206.242H341.461L341.502 197.102L341.767 193.389Z" fill="#F6851B"/>
<path fill-rule="evenodd" clip-rule="evenodd" d="M331.687 173.174C331.706 173.147 331.737 173.13 331.77 173.13H345.542C345.575 173.13 345.606 173.147 345.625 173.174C345.644 173.201 345.649 173.236 345.637 173.268L342.541 181.639L341.869 193.395L341.869 193.397L341.604 197.106L341.563 206.243C341.563 206.299 341.517 206.344 341.461 206.344H335.81C335.754 206.344 335.708 206.299 335.708 206.243L335.688 197.106L335.443 193.396L334.73 181.639L331.675 173.267C331.663 173.236 331.668 173.201 331.687 173.174ZM331.916 173.334L334.926 181.583C334.93 181.592 334.932 181.601 334.932 181.611L335.646 193.383L335.892 197.102L335.912 206.14H341.36L341.4 197.095L341.665 193.383L341.665 193.382L342.339 181.612C342.339 181.602 342.341 181.592 342.345 181.582L345.395 173.334H331.916ZM327.364 187.943C327.389 187.977 327.391 188.024 327.367 188.06L324.177 192.886L328.964 202.218C328.98 202.249 328.979 202.287 328.96 202.318C328.941 202.348 328.908 202.367 328.872 202.366L322.528 202.284H313.062C313.029 202.284 312.999 202.269 312.98 202.243C312.96 202.216 312.955 202.182 312.965 202.151L316.515 191.094C316.525 191.061 316.551 191.036 316.583 191.027L327.253 187.905C327.294 187.893 327.339 187.908 327.364 187.943ZM349.907 187.943C349.932 187.908 349.977 187.893 350.018 187.905L360.688 191.027C360.72 191.036 360.746 191.061 360.756 191.093L364.347 202.151C364.357 202.182 364.352 202.216 364.332 202.242C364.313 202.269 364.283 202.284 364.25 202.284H354.764L348.399 202.366C348.363 202.367 348.33 202.348 348.311 202.318C348.292 202.287 348.291 202.249 348.307 202.217L353.115 192.886L349.904 188.06C349.88 188.024 349.882 187.977 349.907 187.943ZM316.692 191.207L313.202 202.08H322.53L328.705 202.16L323.968 192.926C323.951 192.893 323.953 192.854 323.973 192.823L327.043 188.179L316.692 191.207ZM350.229 188.18L353.318 192.823C353.338 192.854 353.341 192.893 353.324 192.926L348.566 202.16L354.763 202.08L364.11 202.08L360.579 191.207L350.229 188.18Z" fill="#F6851B"/>
</g>
<g filter="url(#filter3_d_115_12)">
<rect x="87" y="260.881" width="302" height="74" rx="10" fill="white" shape-rendering="crispEdges"/>
<rect x="86.5" y="260.381" width="303" height="75" rx="10.5" stroke="#F3F3F3" shape-rendering="crispEdges"/>
<path d="M244.376 304.741C243.776 304.741 243.296 304.561 242.936 304.201C242.59 303.841 242.416 303.361 242.416 302.761V296.621H239.696V294.881H242.416V291.621H244.476V294.881H247.416V296.621H244.476V302.401C244.476 302.801 244.663 303.001 245.036 303.001H247.096V304.741H244.376Z" fill="black"/>
<path d="M233.792 305.022C232.845 305.022 231.985 304.822 231.212 304.422C230.452 304.022 229.845 303.442 229.392 302.682C228.952 301.922 228.732 301.008 228.732 299.942V299.682C228.732 298.615 228.952 297.708 229.392 296.962C229.845 296.202 230.452 295.622 231.212 295.222C231.985 294.808 232.845 294.602 233.792 294.602C234.738 294.602 235.545 294.775 236.212 295.122C236.878 295.468 237.412 295.928 237.812 296.502C238.225 297.075 238.492 297.708 238.612 298.402L236.612 298.822C236.545 298.382 236.405 297.982 236.192 297.622C235.978 297.262 235.678 296.975 235.292 296.762C234.905 296.548 234.418 296.442 233.832 296.442C233.258 296.442 232.738 296.575 232.272 296.842C231.818 297.095 231.458 297.468 231.192 297.962C230.925 298.442 230.792 299.028 230.792 299.722V299.902C230.792 300.595 230.925 301.188 231.192 301.682C231.458 302.175 231.818 302.548 232.272 302.802C232.738 303.055 233.258 303.182 233.832 303.182C234.698 303.182 235.358 302.962 235.812 302.522C236.265 302.068 236.552 301.495 236.672 300.802L238.672 301.262C238.512 301.942 238.225 302.568 237.812 303.142C237.412 303.715 236.878 304.175 236.212 304.522C235.545 304.855 234.738 305.022 233.792 305.022Z" fill="black"/>
<path d="M222.052 305.022C221.052 305.022 220.179 304.815 219.432 304.402C218.685 303.975 218.099 303.382 217.672 302.622C217.259 301.848 217.052 300.955 217.052 299.942V299.702C217.052 298.675 217.259 297.782 217.672 297.022C218.085 296.248 218.659 295.655 219.392 295.242C220.139 294.815 220.999 294.602 221.972 294.602C222.919 294.602 223.745 294.815 224.452 295.242C225.172 295.655 225.732 296.235 226.132 296.982C226.532 297.728 226.732 298.602 226.732 299.602V300.382H219.152C219.179 301.248 219.465 301.942 220.012 302.462C220.572 302.968 221.265 303.222 222.092 303.222C222.865 303.222 223.445 303.048 223.832 302.702C224.232 302.355 224.539 301.955 224.752 301.502L226.452 302.382C226.265 302.755 225.992 303.148 225.632 303.562C225.285 303.975 224.825 304.322 224.252 304.602C223.679 304.882 222.945 305.022 222.052 305.022ZM219.172 298.802H224.632C224.579 298.055 224.312 297.475 223.832 297.062C223.352 296.635 222.725 296.422 221.952 296.422C221.179 296.422 220.545 296.635 220.052 297.062C219.572 297.475 219.279 298.055 219.172 298.802Z" fill="black"/>
<path d="M205.227 304.741V294.881H207.247V296.361H207.567C207.754 295.961 208.087 295.588 208.567 295.241C209.047 294.895 209.761 294.721 210.707 294.721C211.454 294.721 212.114 294.888 212.687 295.221C213.274 295.555 213.734 296.028 214.067 296.641C214.401 297.241 214.567 297.968 214.567 298.821V304.741H212.507V298.981C212.507 298.128 212.294 297.501 211.867 297.101C211.441 296.688 210.854 296.481 210.107 296.481C209.254 296.481 208.567 296.761 208.047 297.321C207.541 297.881 207.287 298.695 207.287 299.761V304.741H205.227Z" fill="black"/>
<path d="M192.922 304.741V294.881H194.942V296.361H195.262C195.449 295.961 195.782 295.588 196.262 295.241C196.742 294.895 197.456 294.721 198.402 294.721C199.149 294.721 199.809 294.888 200.382 295.221C200.969 295.555 201.429 296.028 201.762 296.641C202.096 297.241 202.262 297.968 202.262 298.821V304.741H200.202V298.981C200.202 298.128 199.989 297.501 199.562 297.101C199.136 296.688 198.549 296.481 197.802 296.481C196.949 296.481 196.262 296.761 195.742 297.321C195.236 297.881 194.982 298.695 194.982 299.761V304.741H192.922Z" fill="black"/>
<path d="M185.238 305.022C184.251 305.022 183.371 304.822 182.598 304.422C181.838 304.008 181.238 303.422 180.798 302.662C180.358 301.902 180.138 301.002 180.138 299.962V299.662C180.138 298.622 180.358 297.728 180.798 296.982C181.238 296.222 181.838 295.635 182.598 295.222C183.371 294.808 184.251 294.602 185.238 294.602C186.224 294.602 187.104 294.808 187.878 295.222C188.651 295.635 189.258 296.222 189.698 296.982C190.138 297.728 190.358 298.622 190.358 299.662V299.962C190.358 301.002 190.138 301.902 189.698 302.662C189.258 303.422 188.651 304.008 187.878 304.422C187.104 304.822 186.224 305.022 185.238 305.022ZM185.238 303.182C186.144 303.182 186.878 302.895 187.438 302.322C188.011 301.735 188.298 300.928 188.298 299.902V299.722C188.298 298.695 188.018 297.895 187.458 297.322C186.898 296.735 186.158 296.442 185.238 296.442C184.344 296.442 183.611 296.735 183.038 297.322C182.478 297.895 182.198 298.695 182.198 299.722V299.902C182.198 300.928 182.478 301.735 183.038 302.322C183.611 302.895 184.344 303.182 185.238 303.182Z" fill="black"/>
<path d="M173.362 305.022C172.415 305.022 171.555 304.822 170.782 304.422C170.022 304.022 169.415 303.442 168.962 302.682C168.522 301.922 168.302 301.008 168.302 299.942V299.682C168.302 298.615 168.522 297.708 168.962 296.962C169.415 296.202 170.022 295.622 170.782 295.222C171.555 294.808 172.415 294.602 173.362 294.602C174.309 294.602 175.115 294.775 175.782 295.122C176.449 295.468 176.982 295.928 177.382 296.502C177.795 297.075 178.062 297.708 178.182 298.402L176.182 298.822C176.115 298.382 175.975 297.982 175.762 297.622C175.549 297.262 175.249 296.975 174.862 296.762C174.475 296.548 173.989 296.442 173.402 296.442C172.829 296.442 172.309 296.575 171.842 296.842C171.389 297.095 171.029 297.468 170.762 297.962C170.495 298.442 170.362 299.028 170.362 299.722V299.902C170.362 300.595 170.495 301.188 170.762 301.682C171.029 302.175 171.389 302.548 171.842 302.802C172.309 303.055 172.829 303.182 173.402 303.182C174.269 303.182 174.929 302.962 175.382 302.522C175.835 302.068 176.122 301.495 176.242 300.802L178.242 301.262C178.082 301.942 177.795 302.568 177.382 303.142C176.982 303.715 176.449 304.175 175.782 304.522C175.115 304.855 174.309 305.022 173.362 305.022Z" fill="black"/>
<path d="M158.224 304.741C157.624 304.741 157.144 304.561 156.784 304.201C156.437 303.841 156.264 303.361 156.264 302.761V296.621H153.544V294.881H156.264V291.621H158.324V294.881H161.264V296.621H158.324V302.401C158.324 302.801 158.511 303.001 158.884 303.001H160.944V304.741H158.224Z" fill="black"/>
<path d="M147.735 305.022C146.735 305.022 145.862 304.815 145.115 304.402C144.369 303.975 143.782 303.382 143.355 302.622C142.942 301.848 142.735 300.955 142.735 299.942V299.702C142.735 298.675 142.942 297.782 143.355 297.022C143.769 296.248 144.342 295.655 145.075 295.242C145.822 294.815 146.682 294.602 147.655 294.602C148.602 294.602 149.429 294.815 150.135 295.242C150.855 295.655 151.415 296.235 151.815 296.982C152.215 297.728 152.415 298.602 152.415 299.602V300.382H144.835C144.862 301.248 145.149 301.942 145.695 302.462C146.255 302.968 146.949 303.222 147.775 303.222C148.549 303.222 149.129 303.048 149.515 302.702C149.915 302.355 150.222 301.955 150.435 301.502L152.135 302.382C151.949 302.755 151.675 303.148 151.315 303.562C150.969 303.975 150.509 304.322 149.935 304.602C149.362 304.882 148.629 305.022 147.735 305.022ZM144.855 298.802H150.315C150.262 298.055 149.995 297.475 149.515 297.062C149.035 296.635 148.409 296.422 147.635 296.422C146.862 296.422 146.229 296.635 145.735 297.062C145.255 297.475 144.962 298.055 144.855 298.802Z" fill="black"/>
<path d="M138.098 304.741V290.741H140.158V304.741H138.098Z" fill="black"/>
<path d="M132.981 304.741V290.741H135.041V304.741H132.981Z" fill="black"/>
<path d="M124.498 305.022C123.791 305.022 123.158 304.902 122.598 304.662C122.051 304.422 121.611 304.068 121.278 303.602C120.958 303.135 120.798 302.568 120.798 301.902C120.798 301.222 120.958 300.662 121.278 300.222C121.611 299.768 122.058 299.428 122.618 299.202C123.191 298.975 123.838 298.862 124.558 298.862H127.558V298.222C127.558 297.648 127.385 297.188 127.038 296.842C126.691 296.495 126.158 296.322 125.438 296.322C124.731 296.322 124.191 296.488 123.818 296.822C123.445 297.155 123.198 297.588 123.078 298.122L121.158 297.502C121.318 296.968 121.571 296.488 121.918 296.062C122.278 295.622 122.751 295.268 123.338 295.002C123.925 294.735 124.631 294.602 125.458 294.602C126.738 294.602 127.745 294.928 128.478 295.582C129.211 296.235 129.578 297.162 129.578 298.362V302.422C129.578 302.822 129.765 303.022 130.138 303.022H130.978V304.742H129.438C128.971 304.742 128.591 304.622 128.298 304.382C128.005 304.142 127.858 303.815 127.858 303.402V303.342H127.558C127.451 303.542 127.291 303.775 127.078 304.042C126.865 304.308 126.551 304.542 126.138 304.742C125.725 304.928 125.178 305.022 124.498 305.022ZM124.798 303.322C125.625 303.322 126.291 303.088 126.798 302.622C127.305 302.142 127.558 301.488 127.558 300.662V300.462H124.678C124.131 300.462 123.691 300.582 123.358 300.822C123.025 301.048 122.858 301.388 122.858 301.842C122.858 302.295 123.031 302.655 123.378 302.922C123.725 303.188 124.198 303.322 124.798 303.322Z" fill="black"/>
<path d="M105.06 304.741L103 290.741H105.16L106.84 303.281H107.16L109.32 290.741H113.1L115.26 303.281H115.58L117.24 290.741H119.4L117.34 304.741H113.56L111.36 292.021H111.04L108.86 304.741H105.06Z" fill="black"/>
<path d="M321.304 280.212C331.903 265.104 349.093 265.104 359.692 280.212L360.966 282.033C361.092 282.208 361.192 282.421 361.261 282.656C361.329 282.892 361.365 283.145 361.365 283.402C361.365 283.659 361.329 283.913 361.261 284.148C361.192 284.384 361.092 284.596 360.966 284.772L356.604 290.991C356.474 291.173 356.302 291.274 356.124 291.274C355.945 291.274 355.774 291.173 355.644 290.991L353.888 288.488C346.493 277.946 334.503 277.946 327.108 288.488L325.23 291.163C325.1 291.345 324.928 291.446 324.75 291.446C324.571 291.446 324.399 291.345 324.269 291.163L319.903 284.949C319.778 284.773 319.677 284.561 319.609 284.325C319.54 284.09 319.505 283.836 319.505 283.579C319.505 283.323 319.54 283.069 319.609 282.833C319.677 282.598 319.778 282.386 319.903 282.21L321.304 280.212ZM368.72 293.08L372.602 298.612C372.728 298.787 372.828 299 372.896 299.235C372.965 299.471 373 299.725 373 299.981C373 300.238 372.965 300.492 372.896 300.727C372.828 300.963 372.728 301.175 372.602 301.351L355.087 326.313C354.827 326.673 354.484 326.873 354.129 326.873C353.773 326.873 353.43 326.673 353.17 326.313L340.736 308.596C340.672 308.506 340.586 308.456 340.498 308.456C340.41 308.456 340.325 308.506 340.26 308.596L327.83 326.319C327.569 326.68 327.226 326.881 326.869 326.881C326.513 326.881 326.17 326.68 325.909 326.319L308.394 301.345C308.27 301.17 308.171 300.958 308.103 300.724C308.035 300.489 308 300.236 308 299.981C308 299.726 308.035 299.473 308.103 299.239C308.171 299.004 308.27 298.793 308.394 298.617L312.28 293.08C312.539 292.716 312.882 292.514 313.239 292.514C313.595 292.514 313.938 292.716 314.198 293.08L326.627 310.798C326.692 310.889 326.778 310.939 326.868 310.939C326.957 310.939 327.043 310.889 327.108 310.798L339.538 293.075C339.797 292.709 340.141 292.506 340.498 292.506C340.855 292.506 341.199 292.709 341.459 293.075L353.888 310.798C353.953 310.889 354.039 310.939 354.129 310.939C354.218 310.939 354.304 310.889 354.369 310.798L366.799 293.075C367.059 292.714 367.402 292.514 367.757 292.514C368.113 292.514 368.456 292.714 368.716 293.075" fill="#3B99FC"/>
</g>
</g>
<defs>
<filter id="filter0_d_115_12" x="-10" y="0.381348" width="484" height="406" filterUnits="userSpaceOnUse" color-interpolation-filters="sRGB">
<feFlood flood-opacity="0" result="BackgroundImageFix"/>
<feColorMatrix in="SourceAlpha" type="matrix" values="0 0 0 0 0 0 0 0 0 0 0 0 0 0 0 0 0 0 127 0" result="hardAlpha"/>
<feOffset dy="2"/>
<feGaussianBlur stdDeviation="5"/>
<feComposite in2="hardAlpha" operator="out"/>
<feColorMatrix type="matrix" values="0 0 0 0 0 0 0 0 0 0 0 0 0 0 0 0 0 0 0.05 0"/>
<feBlend mode="normal" in2="BackgroundImageFix" result="effect1_dropShadow_115_12"/>
<feBlend mode="normal" in="SourceGraphic" in2="effect1_dropShadow_115_12" result="shape"/>
</filter>
<filter id="filter1_d_115_12" x="74" y="141.808" width="324.146" height="103" filterUnits="userSpaceOnUse" color-interpolation-filters="sRGB">
<feFlood flood-opacity="0" result="BackgroundImageFix"/>
<feColorMatrix in="SourceAlpha" type="matrix" values="0 0 0 0 0 0 0 0 0 0 0 0 0 0 0 0 0 0 127 0" result="hardAlpha"/>
<feOffset dy="1"/>
<feGaussianBlur stdDeviation="5"/>
<feComposite in2="hardAlpha" operator="out"/>
<feColorMatrix type="matrix" values="0 0 0 0 0 0 0 0 0 0 0 0 0 0 0 0 0 0 0.07 0"/>
<feBlend mode="normal" in2="BackgroundImageFix" result="effect1_dropShadow_115_12"/>
<feBlend mode="normal" in="SourceGraphic" in2="effect1_dropShadow_115_12" result="shape"/>
</filter>
<filter id="filter2_d_115_12" x="74" y="141.808" width="324.146" height="103" filterUnits="userSpaceOnUse" color-interpolation-filters="sRGB">
<feFlood flood-opacity="0" result="BackgroundImageFix"/>
<feColorMatrix in="SourceAlpha" type="matrix" values="0 0 0 0 0 0 0 0 0 0 0 0 0 0 0 0 0 0 127 0" result="hardAlpha"/>
<feOffset dy="1"/>
<feGaussianBlur stdDeviation="5"/>
<feComposite in2="hardAlpha" operator="out"/>
<feColorMatrix type="matrix" values="0 0 0 0 0 0 0 0 0 0 0 0 0 0 0 0 0 0 0.07 0"/>
<feBlend mode="normal" in2="BackgroundImageFix" result="effect1_dropShadow_115_12"/>
<feBlend mode="normal" in="SourceGraphic" in2="effect1_dropShadow_115_12" result="shape"/>
</filter>
<filter id="filter3_d_115_12" x="76" y="250.881" width="324" height="96" filterUnits="userSpaceOnUse" color-interpolation-filters="sRGB">
<feFlood flood-opacity="0" result="BackgroundImageFix"/>
<feColorMatrix in="SourceAlpha" type="matrix" values="0 0 0 0 0 0 0 0 0 0 0 0 0 0 0 0 0 0 127 0" result="hardAlpha"/>
<feOffset dy="1"/>
<feGaussianBlur stdDeviation="5"/>
<feComposite in2="hardAlpha" operator="out"/>
<feColorMatrix type="matrix" values="0 0 0 0 0 0 0 0 0 0 0 0 0 0 0 0 0 0 0.07 0"/>
<feBlend mode="normal" in2="BackgroundImageFix" result="effect1_dropShadow_115_12"/>
<feBlend mode="normal" in="SourceGraphic" in2="effect1_dropShadow_115_12" result="shape"/>
</filter>
<radialGradient id="paint0_radial_115_12" cx="0" cy="0" r="1" gradientUnits="userSpaceOnUse" gradientTransform="translate(90.0061 351.592) rotate(-39.1226) scale(707.958 1839.41)">
<stop stop-color="#FCD581"/>
<stop offset="1" stop-color="#BBDEF0" stop-opacity="0"/>
</radialGradient>
</defs>
</svg>
