<svg width="269" height="213" viewBox="0 0 269 213" fill="none" xmlns="http://www.w3.org/2000/svg">
<rect x="1.40104" y="2.15934" width="266.198" height="209.01" rx="12.6094" fill="white" stroke="black" stroke-width="2.80208"/>
<path d="M22.0902 161.841V148.704H27.4952C28.321 148.704 29.0467 148.873 29.6723 149.211C30.3104 149.536 30.8046 149.999 31.1549 150.6C31.5177 151.2 31.6991 151.913 31.6991 152.739V153.002C31.6991 153.815 31.5115 154.528 31.1361 155.141C30.7733 155.742 30.2728 156.211 29.6347 156.549C29.0091 156.874 28.296 157.037 27.4952 157.037H24.5675V161.841H22.0902ZM24.5675 154.785H27.2513C27.8393 154.785 28.3147 154.622 28.6776 154.297C29.0404 153.971 29.2218 153.527 29.2218 152.964V152.777C29.2218 152.214 29.0404 151.769 28.6776 151.444C28.3147 151.119 27.8393 150.956 27.2513 150.956H24.5675V154.785ZM33.4917 161.841V152.533H35.8189V153.584H36.1567C36.2943 153.208 36.5195 152.933 36.8323 152.758C37.1576 152.583 37.533 152.495 37.9584 152.495H39.0844V154.597H37.9208C37.3203 154.597 36.8261 154.76 36.4382 155.085C36.0504 155.398 35.8564 155.886 35.8564 156.549V161.841H33.4917ZM45.0319 162.104C44.1061 162.104 43.2741 161.916 42.5359 161.541C41.7977 161.166 41.2159 160.621 40.7905 159.908C40.3651 159.195 40.1524 158.338 40.1524 157.337V157.037C40.1524 156.036 40.3651 155.179 40.7905 154.466C41.2159 153.753 41.7977 153.208 42.5359 152.833C43.2741 152.458 44.1061 152.27 45.0319 152.27C45.9578 152.27 46.7898 152.458 47.528 152.833C48.2662 153.208 48.848 153.753 49.2734 154.466C49.6988 155.179 49.9115 156.036 49.9115 157.037V157.337C49.9115 158.338 49.6988 159.195 49.2734 159.908C48.848 160.621 48.2662 161.166 47.528 161.541C46.7898 161.916 45.9578 162.104 45.0319 162.104ZM45.0319 160.002C45.7576 160.002 46.3582 159.771 46.8336 159.308C47.3091 158.832 47.5468 158.157 47.5468 157.281V157.093C47.5468 156.217 47.3091 155.548 46.8336 155.085C46.3707 154.61 45.7701 154.372 45.0319 154.372C44.3063 154.372 43.7057 154.61 43.2303 155.085C42.7548 155.548 42.5171 156.217 42.5171 157.093V157.281C42.5171 158.157 42.7548 158.832 43.2303 159.308C43.7057 159.771 44.3063 160.002 45.0319 160.002ZM53.3216 161.841V154.484H50.9569V152.533H53.3216V150.806C53.3216 150.168 53.5093 149.661 53.8846 149.286C54.2725 148.898 54.7729 148.704 55.386 148.704H57.6381V150.656H56.2118C55.8614 150.656 55.6863 150.844 55.6863 151.219V152.533H59.4398V154.484H55.6863V161.841H53.3216ZM59.4398 161.841V152.533H61.8045V161.841H59.4398ZM60.6221 151.519C60.1967 151.519 59.8339 151.382 59.5336 151.106C59.2458 150.831 59.102 150.468 59.102 150.018C59.102 149.567 59.2458 149.205 59.5336 148.929C59.8339 148.654 60.1967 148.516 60.6221 148.516C61.06 148.516 61.4229 148.654 61.7106 148.929C61.9984 149.205 62.1423 149.567 62.1423 150.018C62.1423 150.468 61.9984 150.831 61.7106 151.106C61.4229 151.382 61.06 151.519 60.6221 151.519ZM67.9945 161.841C67.3814 161.841 66.881 161.654 66.4931 161.278C66.1178 160.89 65.9301 160.377 65.9301 159.739V154.484H63.6029V152.533H65.9301V149.642H68.2948V152.533H70.8472V154.484H68.2948V159.326C68.2948 159.702 68.4699 159.889 68.8203 159.889H70.6219V161.841H67.9945ZM82.2383 162.104C81.2248 162.104 80.3302 161.923 79.5545 161.56C78.7788 161.197 78.172 160.678 77.7341 160.002C77.2962 159.326 77.0772 158.513 77.0772 157.562V157.037H79.517V157.562C79.517 158.351 79.761 158.945 80.2489 159.345C80.7369 159.733 81.4 159.927 82.2383 159.927C83.089 159.927 83.7209 159.758 84.1338 159.42C84.5592 159.082 84.7719 158.651 84.7719 158.125C84.7719 157.763 84.6655 157.468 84.4528 157.243C84.2526 157.018 83.9523 156.837 83.552 156.699C83.1641 156.549 82.6887 156.411 82.1256 156.286L81.694 156.192C80.7932 155.992 80.0174 155.742 79.3668 155.442C78.7287 155.129 78.2345 154.722 77.8842 154.222C77.5464 153.721 77.3775 153.071 77.3775 152.27C77.3775 151.469 77.5652 150.787 77.9405 150.224C78.3284 149.649 78.8664 149.211 79.5545 148.911C80.2552 148.598 81.0747 148.441 82.013 148.441C82.9514 148.441 83.7834 148.604 84.5091 148.929C85.2473 149.242 85.8228 149.718 86.2357 150.356C86.6611 150.981 86.8738 151.769 86.8738 152.72V153.283H84.434V152.72C84.434 152.22 84.334 151.819 84.1338 151.519C83.9461 151.206 83.6708 150.981 83.308 150.844C82.9452 150.693 82.5135 150.618 82.013 150.618C81.2623 150.618 80.7056 150.762 80.3427 151.05C79.9924 151.325 79.8173 151.707 79.8173 152.195C79.8173 152.52 79.8986 152.795 80.0612 153.021C80.2364 153.246 80.4929 153.433 80.8307 153.584C81.1685 153.734 81.6002 153.865 82.1256 153.978L82.5573 154.072C83.4957 154.272 84.3089 154.528 84.9971 154.841C85.6977 155.154 86.242 155.567 86.6298 156.08C87.0177 156.593 87.2116 157.25 87.2116 158.05C87.2116 158.851 87.0052 159.558 86.5923 160.171C86.1919 160.772 85.6164 161.247 84.8657 161.597C84.1275 161.935 83.2517 162.104 82.2383 162.104ZM89.1343 161.841V148.704H91.499V153.677H91.8368C91.9369 153.477 92.0933 153.277 92.306 153.077C92.5187 152.877 92.8002 152.714 93.1505 152.589C93.5133 152.451 93.97 152.383 94.5205 152.383C95.2462 152.383 95.878 152.551 96.416 152.889C96.9665 153.215 97.3919 153.671 97.6922 154.259C97.9925 154.835 98.1426 155.51 98.1426 156.286V161.841H95.7779V156.474C95.7779 155.773 95.6028 155.248 95.2524 154.897C94.9146 154.547 94.4267 154.372 93.7886 154.372C93.0629 154.372 92.4999 154.616 92.0995 155.104C91.6991 155.579 91.499 156.249 91.499 157.112V161.841H89.1343ZM103.589 162.104C102.926 162.104 102.332 161.991 101.806 161.766C101.281 161.529 100.862 161.191 100.549 160.753C100.249 160.302 100.098 159.758 100.098 159.12C100.098 158.482 100.249 157.95 100.549 157.525C100.862 157.087 101.287 156.762 101.825 156.549C102.376 156.324 103.001 156.211 103.702 156.211H106.254V155.686C106.254 155.248 106.117 154.891 105.841 154.616C105.566 154.328 105.128 154.184 104.528 154.184C103.939 154.184 103.502 154.322 103.214 154.597C102.926 154.86 102.738 155.204 102.651 155.629L100.474 154.897C100.624 154.422 100.862 153.99 101.187 153.602C101.525 153.202 101.969 152.883 102.519 152.645C103.082 152.395 103.764 152.27 104.565 152.27C105.791 152.27 106.761 152.576 107.474 153.19C108.187 153.803 108.544 154.691 108.544 155.854V159.326C108.544 159.702 108.719 159.889 109.069 159.889H109.82V161.841H108.243C107.781 161.841 107.399 161.729 107.099 161.503C106.798 161.278 106.648 160.978 106.648 160.603V160.584H106.292C106.242 160.734 106.129 160.934 105.954 161.184C105.779 161.422 105.503 161.635 105.128 161.823C104.753 162.01 104.24 162.104 103.589 162.104ZM104.002 160.19C104.665 160.19 105.203 160.008 105.616 159.646C106.041 159.27 106.254 158.776 106.254 158.163V157.975H103.871C103.433 157.975 103.089 158.069 102.838 158.257C102.588 158.444 102.463 158.707 102.463 159.045C102.463 159.383 102.594 159.658 102.857 159.871C103.12 160.083 103.502 160.19 104.002 160.19ZM111.549 161.841V152.533H113.876V153.584H114.214C114.351 153.208 114.577 152.933 114.889 152.758C115.215 152.583 115.59 152.495 116.016 152.495H117.142V154.597H115.978C115.377 154.597 114.883 154.76 114.495 155.085C114.108 155.398 113.914 155.886 113.914 156.549V161.841H111.549ZM122.901 162.104C121.976 162.104 121.156 161.91 120.443 161.522C119.742 161.122 119.192 160.565 118.791 159.852C118.404 159.126 118.21 158.275 118.21 157.3V157.074C118.21 156.098 118.404 155.254 118.791 154.541C119.179 153.815 119.723 153.258 120.424 152.87C121.125 152.47 121.938 152.27 122.864 152.27C123.777 152.27 124.572 152.476 125.247 152.889C125.923 153.29 126.448 153.853 126.824 154.578C127.199 155.291 127.387 156.123 127.387 157.074V157.881H120.612C120.637 158.519 120.875 159.039 121.325 159.439C121.775 159.839 122.326 160.04 122.977 160.04C123.64 160.04 124.128 159.896 124.44 159.608C124.753 159.32 124.991 159.001 125.154 158.651L127.087 159.664C126.911 159.99 126.655 160.346 126.317 160.734C125.992 161.109 125.554 161.435 125.003 161.71C124.453 161.973 123.752 162.104 122.901 162.104ZM120.631 156.117H124.985C124.935 155.579 124.716 155.148 124.328 154.822C123.952 154.497 123.458 154.334 122.845 154.334C122.207 154.334 121.7 154.497 121.325 154.822C120.95 155.148 120.718 155.579 120.631 156.117Z" fill="black"/>
<path d="M27.7115 188.077V183.923H23.6119V180.807H27.7115V176.653H30.9365V180.807H35.0361V183.923H30.9365V188.077H27.7115ZM41.38 191.931V191.22C41.38 190.509 41.4347 189.908 41.544 189.416C41.6533 188.906 41.8902 188.332 42.2546 187.694L48.6773 176.352V175.915H38.5103V172.799H52.2849V176.954L45.5069 189.061C45.2701 189.48 45.1061 189.854 45.015 190.182C44.9239 190.509 44.8783 190.91 44.8783 191.384V191.931H41.38ZM56.9779 192.286L54.9007 190.619L69.6046 172.444L71.6817 174.111L56.9779 192.286ZM68.5114 192.204C67.1266 192.204 66.0425 191.84 65.259 191.111C64.4755 190.364 64.0838 189.352 64.0838 188.077V187.886C64.0838 186.592 64.4755 185.581 65.259 184.852C66.0425 184.105 67.1266 183.731 68.5114 183.731C69.8597 183.731 70.9347 184.105 71.7364 184.852C72.5381 185.581 72.9389 186.592 72.9389 187.886V188.077C72.9389 189.352 72.5472 190.364 71.7637 191.111C70.9802 191.84 69.8961 192.204 68.5114 192.204ZM68.5114 189.963C69.0397 189.963 69.4497 189.799 69.7412 189.471C70.051 189.143 70.2058 188.715 70.2058 188.186V187.749C70.2058 187.221 70.051 186.793 69.7412 186.465C69.4497 186.137 69.0397 185.973 68.5114 185.973C67.983 185.973 67.5639 186.137 67.2541 186.465C66.9626 186.793 66.8169 187.221 66.8169 187.749V188.186C66.8169 188.715 66.9626 189.143 67.2541 189.471C67.5639 189.799 67.983 189.963 68.5114 189.963ZM58.0711 180.998C56.6863 180.998 55.6022 180.634 54.8187 179.905C54.0353 179.158 53.6435 178.147 53.6435 176.872V176.68C53.6435 175.387 54.0353 174.375 54.8187 173.647C55.6022 172.899 56.6863 172.526 58.0711 172.526C59.4194 172.526 60.4944 172.899 61.2961 173.647C62.0978 174.375 62.4986 175.387 62.4986 176.68V176.872C62.4986 178.147 62.1069 179.158 61.3234 179.905C60.5399 180.634 59.4558 180.998 58.0711 180.998ZM58.0711 178.757C58.5995 178.757 59.0094 178.593 59.301 178.265C59.6107 177.937 59.7656 177.509 59.7656 176.981V176.544C59.7656 176.015 59.6107 175.587 59.301 175.259C59.0094 174.931 58.5995 174.767 58.0711 174.767C57.5427 174.767 57.1236 174.931 56.8139 175.259C56.5223 175.587 56.3766 176.015 56.3766 176.544V176.981C56.3766 177.509 56.5223 177.937 56.8139 178.265C57.1236 178.593 57.5427 178.757 58.0711 178.757Z" fill="#343434"/>
<path d="M25.7284 127.05L40.6998 117.087C44.0491 114.858 48.2758 114.405 52.0213 115.873V115.873C58.7442 118.51 66.2825 114.824 68.3306 107.899L79.6345 69.6799C81.7513 62.523 89.8349 59.033 96.4954 62.4002L116.631 72.5798C127.081 77.8629 139.42 77.8626 149.87 72.5789L155.046 69.9619C163.845 65.513 174.368 66.2082 182.505 71.776V71.776C194.179 79.7636 210.036 77.4 218.873 66.3553L239.841 40.1487" stroke="#C0EF68" stroke-width="3.41632"/>
<rect x="18.7656" y="18.5266" width="29.1938" height="21.8953" rx="1.86039" fill="#C0EF68"/>
<path d="M33.3637 35.5562V23.3921ZM33.3637 23.3921L28.498 28.8659ZM33.3637 23.3921L38.2293 28.8659Z" fill="#C0EF68"/>
<path d="M33.3637 35.5562V23.3921M33.3637 23.3921L28.498 28.8659M33.3637 23.3921L38.2293 28.8659" stroke="black" stroke-width="1.39529" stroke-linecap="round" stroke-linejoin="round"/>
</svg>
