<svg width="105" height="93" viewBox="0 0 105 93" fill="none" xmlns="http://www.w3.org/2000/svg">
<line x1="104.027" y1="91.297" x2="68.0273" y2="64.297" stroke="#1ED760" stroke-width="3.24245"/>
<rect x="1.5" y="1.5" width="72" height="72" rx="18.5" fill="white" stroke="#1ED760" stroke-width="3"/>
<path d="M31.4878 32.9854H43.468M29.9902 38.9755H31.4878M43.468 38.9755H44.9655" stroke="#1ED760" stroke-width="2.2463" stroke-linecap="round" stroke-linejoin="round"/>
<path d="M29.9901 44.9654H40.4728M24 44.9654V35.0967C24.0003 34.6915 24.0828 34.2905 24.2426 33.9181L27.7154 25.8165C27.9461 25.2776 28.3298 24.8182 28.8191 24.4953C29.3084 24.1724 29.8816 24.0002 30.4678 24H44.4877C45.074 23.9998 45.6475 24.1716 46.137 24.4943C46.6266 24.8169 47.0107 25.2761 47.2417 25.815L50.713 33.9167C50.8731 34.29 50.9557 34.692 50.9556 35.0982V36.729M29.9901 44.9654H24V48.5595C24 48.7978 24.0947 49.0264 24.2632 49.1949C24.4317 49.3634 24.6602 49.458 24.8985 49.458H29.0916C29.3299 49.458 29.5585 49.3634 29.727 49.1949C29.8955 49.0264 29.9901 48.7978 29.9901 48.5595V44.9654Z" stroke="#1ED760" stroke-width="2.2463" stroke-linecap="round"/>
<path d="M46.4629 52.4532C46.4629 52.4532 47.8107 47.7839 50.9555 44.9656" stroke="#1ED760" stroke-width="2.2463" stroke-linecap="round" stroke-linejoin="round"/>
<path d="M50.6594 50.0933L50.4587 50.1127C49.2402 50.2264 48.0263 49.8533 47.0819 49.075C46.1375 48.2967 45.5393 47.1764 45.4181 45.9586C45.3582 45.3574 45.4178 44.7502 45.5935 44.1721C45.7692 43.594 46.0575 43.0563 46.4418 42.5901C46.826 42.1238 47.2987 41.7382 47.8326 41.4553C48.3666 41.1724 48.9511 40.9979 49.5527 40.9419L54.0244 40.5226C54.1623 40.5096 54.2998 40.5518 54.4067 40.6399C54.5136 40.728 54.5813 40.8549 54.5949 40.9928L54.9768 44.8564C55.0393 45.4841 54.9771 46.118 54.7936 46.7216C54.6102 47.3252 54.3092 47.8865 53.9079 48.3733C53.5066 48.86 53.013 49.2626 52.4555 49.5578C51.898 49.853 51.2876 50.035 50.6594 50.0933V50.0933Z" stroke="#1ED760" stroke-width="2.2463" stroke-linecap="round" stroke-linejoin="round"/>
</svg>
