<svg width="218" height="55" viewBox="0 0 218 55" fill="none" xmlns="http://www.w3.org/2000/svg">
<path d="M214.707 33.9414C214.707 33.5768 214.625 33.2396 214.461 32.9297C214.306 32.6107 213.982 32.3236 213.49 32.0684C213.007 31.804 212.278 31.5762 211.303 31.3848C210.482 31.2116 209.74 31.0065 209.074 30.7695C208.418 30.5326 207.857 30.2454 207.393 29.9082C206.937 29.571 206.586 29.1745 206.34 28.7188C206.094 28.263 205.971 27.7298 205.971 27.1191C205.971 26.5358 206.098 25.9844 206.354 25.4648C206.618 24.9453 206.987 24.485 207.461 24.084C207.944 23.6829 208.523 23.3685 209.197 23.1406C209.872 22.9128 210.624 22.7988 211.453 22.7988C212.638 22.7988 213.65 23.0085 214.488 23.4277C215.327 23.847 215.969 24.4076 216.416 25.1094C216.863 25.8021 217.086 26.5723 217.086 27.4199H214.557C214.557 27.0098 214.434 26.6133 214.188 26.2305C213.951 25.8385 213.6 25.515 213.135 25.2598C212.679 25.0046 212.118 24.877 211.453 24.877C210.751 24.877 210.182 24.9863 209.744 25.2051C209.316 25.4147 209.001 25.6836 208.801 26.0117C208.609 26.3398 208.514 26.6862 208.514 27.0508C208.514 27.3242 208.559 27.5703 208.65 27.7891C208.751 27.9987 208.924 28.1947 209.17 28.377C209.416 28.5501 209.762 28.7142 210.209 28.8691C210.656 29.0241 211.225 29.179 211.918 29.334C213.13 29.6074 214.128 29.9355 214.912 30.3184C215.696 30.7012 216.279 31.1706 216.662 31.7266C217.045 32.2826 217.236 32.957 217.236 33.75C217.236 34.3971 217.1 34.9896 216.826 35.5273C216.562 36.0651 216.174 36.5299 215.664 36.9219C215.163 37.3047 214.561 37.6055 213.859 37.8242C213.167 38.0339 212.387 38.1387 211.521 38.1387C210.218 38.1387 209.115 37.9062 208.213 37.4414C207.311 36.9766 206.627 36.375 206.162 35.6367C205.697 34.8984 205.465 34.1191 205.465 33.2988H208.008C208.044 33.9915 208.245 34.543 208.609 34.9531C208.974 35.3542 209.421 35.6413 209.949 35.8145C210.478 35.9785 211.002 36.0605 211.521 36.0605C212.214 36.0605 212.793 35.9694 213.258 35.7871C213.732 35.6048 214.092 35.3542 214.338 35.0352C214.584 34.7161 214.707 34.3516 214.707 33.9414Z" fill="black"/>
<path d="M203.127 23.0723V25.0137H195.129V23.0723H203.127ZM197.836 19.4766H200.365V34.2012C200.365 34.7025 200.443 35.0807 200.598 35.3359C200.753 35.5911 200.953 35.7598 201.199 35.8418C201.445 35.9238 201.71 35.9648 201.992 35.9648C202.202 35.9648 202.421 35.9466 202.648 35.9102C202.885 35.8646 203.063 35.8281 203.182 35.8008L203.195 37.8652C202.995 37.929 202.73 37.9883 202.402 38.043C202.083 38.1068 201.696 38.1387 201.24 38.1387C200.62 38.1387 200.051 38.0156 199.531 37.7695C199.012 37.5234 198.597 37.1133 198.287 36.5391C197.986 35.9557 197.836 35.1719 197.836 34.1875V19.4766Z" fill="black"/>
<path d="M188.197 36.0605C188.799 36.0605 189.355 35.9375 189.865 35.6914C190.376 35.4453 190.795 35.1081 191.123 34.6797C191.451 34.2422 191.638 33.7454 191.684 33.1895H194.09C194.044 34.0645 193.748 34.8802 193.201 35.6367C192.663 36.3841 191.957 36.9902 191.082 37.4551C190.207 37.9108 189.245 38.1387 188.197 38.1387C187.085 38.1387 186.115 37.9427 185.285 37.5508C184.465 37.1589 183.781 36.6211 183.234 35.9375C182.697 35.2539 182.291 34.4701 182.018 33.5859C181.753 32.6927 181.621 31.7493 181.621 30.7559V30.1816C181.621 29.1882 181.753 28.2493 182.018 27.3652C182.291 26.472 182.697 25.6836 183.234 25C183.781 24.3164 184.465 23.7786 185.285 23.3867C186.115 22.9948 187.085 22.7988 188.197 22.7988C189.355 22.7988 190.367 23.0358 191.232 23.5098C192.098 23.9746 192.777 24.6126 193.27 25.4238C193.771 26.2259 194.044 27.1374 194.09 28.1582H191.684C191.638 27.5475 191.465 26.9961 191.164 26.5039C190.872 26.0117 190.471 25.6198 189.961 25.3281C189.46 25.0273 188.872 24.877 188.197 24.877C187.423 24.877 186.771 25.0319 186.242 25.3418C185.723 25.6426 185.308 26.0527 184.998 26.5723C184.697 27.0827 184.479 27.6523 184.342 28.2812C184.214 28.901 184.15 29.5345 184.15 30.1816V30.7559C184.15 31.403 184.214 32.041 184.342 32.6699C184.469 33.2988 184.684 33.8685 184.984 34.3789C185.294 34.8893 185.709 35.2995 186.229 35.6094C186.757 35.9102 187.413 36.0605 188.197 36.0605Z" fill="black"/>
<path d="M173.568 38.1387C172.538 38.1387 171.604 37.9655 170.766 37.6191C169.936 37.2637 169.221 36.7669 168.619 36.1289C168.027 35.4909 167.571 34.7344 167.252 33.8594C166.933 32.9844 166.773 32.0273 166.773 30.9883V30.4141C166.773 29.2109 166.951 28.14 167.307 27.2012C167.662 26.2533 168.145 25.4512 168.756 24.7949C169.367 24.1387 170.059 23.6419 170.834 23.3047C171.609 22.9674 172.411 22.7988 173.24 22.7988C174.298 22.7988 175.209 22.9811 175.975 23.3457C176.749 23.7103 177.383 24.2207 177.875 24.877C178.367 25.5241 178.732 26.2897 178.969 27.1738C179.206 28.0488 179.324 29.0059 179.324 30.0449V31.1797H168.277V29.1152H176.795V28.9238C176.758 28.2676 176.622 27.6296 176.385 27.0098C176.157 26.39 175.792 25.8796 175.291 25.4785C174.79 25.0775 174.106 24.877 173.24 24.877C172.666 24.877 172.137 25 171.654 25.2461C171.171 25.4831 170.757 25.8385 170.41 26.3125C170.064 26.7865 169.795 27.3652 169.604 28.0488C169.412 28.7324 169.316 29.5208 169.316 30.4141V30.9883C169.316 31.6901 169.412 32.3509 169.604 32.9707C169.804 33.5814 170.091 34.1191 170.465 34.584C170.848 35.0488 171.308 35.4134 171.846 35.6777C172.393 35.9421 173.012 36.0742 173.705 36.0742C174.598 36.0742 175.355 35.8919 175.975 35.5273C176.594 35.1628 177.137 34.6751 177.602 34.0645L179.133 35.2812C178.814 35.7643 178.408 36.2246 177.916 36.6621C177.424 37.0996 176.818 37.4551 176.098 37.7285C175.387 38.002 174.544 38.1387 173.568 38.1387Z" fill="black"/>
<path d="M160.799 23.0723H163.342V39.6289C163.342 40.5312 163.196 41.2969 162.904 41.9258C162.622 42.5547 162.193 43.0286 161.619 43.3477C161.054 43.6758 160.339 43.8398 159.473 43.8398C159.245 43.8398 158.98 43.8171 158.68 43.7715C158.37 43.7259 158.11 43.6712 157.9 43.6074L157.914 41.5703C158.087 41.6068 158.283 41.6341 158.502 41.6523C158.721 41.6797 158.912 41.6934 159.076 41.6934C159.45 41.6934 159.764 41.625 160.02 41.4883C160.275 41.3516 160.466 41.1328 160.594 40.832C160.73 40.5312 160.799 40.1302 160.799 39.6289V23.0723ZM160.539 19.1484C160.539 18.7383 160.667 18.3919 160.922 18.1094C161.177 17.8268 161.546 17.6855 162.029 17.6855C162.521 17.6855 162.895 17.8268 163.15 18.1094C163.406 18.3919 163.533 18.7383 163.533 19.1484C163.533 19.5404 163.406 19.8776 163.15 20.1602C162.895 20.4336 162.521 20.5703 162.029 20.5703C161.546 20.5703 161.177 20.4336 160.922 20.1602C160.667 19.8776 160.539 19.5404 160.539 19.1484Z" fill="black"/>
<path d="M144.092 30.6328V30.3184C144.092 29.252 144.247 28.263 144.557 27.3516C144.867 26.431 145.313 25.6335 145.896 24.959C146.48 24.2754 147.186 23.7467 148.016 23.373C148.845 22.9902 149.775 22.7988 150.805 22.7988C151.844 22.7988 152.778 22.9902 153.607 23.373C154.446 23.7467 155.157 24.2754 155.74 24.959C156.333 25.6335 156.784 26.431 157.094 27.3516C157.404 28.263 157.559 29.252 157.559 30.3184V30.6328C157.559 31.6992 157.404 32.6882 157.094 33.5996C156.784 34.5111 156.333 35.3086 155.74 35.9922C155.157 36.6667 154.451 37.1953 153.621 37.5781C152.801 37.9518 151.871 38.1387 150.832 38.1387C149.793 38.1387 148.859 37.9518 148.029 37.5781C147.2 37.1953 146.489 36.6667 145.896 35.9922C145.313 35.3086 144.867 34.5111 144.557 33.5996C144.247 32.6882 144.092 31.6992 144.092 30.6328ZM146.621 30.3184V30.6328C146.621 31.3711 146.708 32.0684 146.881 32.7246C147.054 33.3717 147.314 33.946 147.66 34.4473C148.016 34.9486 148.458 35.3451 148.986 35.6367C149.515 35.9193 150.13 36.0605 150.832 36.0605C151.525 36.0605 152.131 35.9193 152.65 35.6367C153.179 35.3451 153.617 34.9486 153.963 34.4473C154.309 33.946 154.569 33.3717 154.742 32.7246C154.924 32.0684 155.016 31.3711 155.016 30.6328V30.3184C155.016 29.5892 154.924 28.901 154.742 28.2539C154.569 27.5977 154.305 27.0189 153.949 26.5176C153.603 26.0072 153.165 25.6061 152.637 25.3145C152.117 25.0228 151.507 24.877 150.805 24.877C150.112 24.877 149.501 25.0228 148.973 25.3145C148.453 25.6061 148.016 26.0072 147.66 26.5176C147.314 27.0189 147.054 27.5977 146.881 28.2539C146.708 28.901 146.621 29.5892 146.621 30.3184Z" fill="black"/>
<path d="M138.076 25.3965V37.8652H135.547V23.0723H138.008L138.076 25.3965ZM142.697 22.9902L142.684 25.3418C142.474 25.2962 142.273 25.2689 142.082 25.2598C141.9 25.2415 141.69 25.2324 141.453 25.2324C140.87 25.2324 140.355 25.3236 139.908 25.5059C139.462 25.6882 139.083 25.9434 138.773 26.2715C138.464 26.5996 138.217 26.9915 138.035 27.4473C137.862 27.8939 137.748 28.3861 137.693 28.9238L136.982 29.334C136.982 28.4408 137.069 27.6022 137.242 26.8184C137.424 26.0345 137.702 25.3418 138.076 24.7402C138.45 24.1296 138.924 23.6556 139.498 23.3184C140.081 22.972 140.774 22.7988 141.576 22.7988C141.758 22.7988 141.968 22.8216 142.205 22.8672C142.442 22.9036 142.606 22.9447 142.697 22.9902Z" fill="black"/>
<path d="M125.607 30.0586H120.289V27.9121H125.607C126.637 27.9121 127.471 27.748 128.109 27.4199C128.747 27.0918 129.212 26.6361 129.504 26.0527C129.805 25.4694 129.955 24.804 129.955 24.0566C129.955 23.373 129.805 22.7305 129.504 22.1289C129.212 21.5273 128.747 21.0443 128.109 20.6797C127.471 20.306 126.637 20.1191 125.607 20.1191H120.904V37.8652H118.266V17.959H125.607C127.111 17.959 128.383 18.2188 129.422 18.7383C130.461 19.2578 131.249 19.9779 131.787 20.8984C132.325 21.8099 132.594 22.8535 132.594 24.0293C132.594 25.3053 132.325 26.3945 131.787 27.2969C131.249 28.1992 130.461 28.8874 129.422 29.3613C128.383 29.8262 127.111 30.0586 125.607 30.0586Z" fill="black"/>
<path d="M91.7012 31.8496L95.6523 17.959H97.5664L96.459 23.3594L92.207 37.8652H90.3066L91.7012 31.8496ZM87.6133 17.959L90.7578 31.5762L91.7012 37.8652H89.8145L84.9883 17.959H87.6133ZM102.68 31.5625L105.756 17.959H108.395L103.582 37.8652H101.695L102.68 31.5625ZM97.8535 17.959L101.695 31.8496L103.09 37.8652H101.189L97.0879 23.3594L95.9668 17.959H97.8535Z" fill="black"/>
<path d="M73.627 17.959V37.8652H70.9883V17.959H73.627ZM81.9668 26.9141V29.0742H73.0527V26.9141H81.9668ZM83.3203 17.959V20.1191H73.0527V17.959H83.3203Z" fill="black"/>
<path d="M67.7207 35.7188V37.8652H57.1797V35.7188H67.7207ZM57.7129 17.959V37.8652H55.0742V17.959H57.7129ZM66.3262 26.5176V28.6641H57.1797V26.5176H66.3262ZM67.584 17.959V20.1191H57.1797V17.959H67.584Z" fill="black"/>
<g clip-path="url(#clip0_101_3277)">
<path d="M39.7515 36.1239L48.3393 40.7626V50.0417L48.3379 50.0407L39.7486 54.6798V45.4027L31.1608 40.7641V31.4852L31.1622 31.4861L39.7514 26.8467L39.7515 36.1239Z" fill="#FCD581"/>
<path d="M18.2856 29.1592L9.69777 33.7978L1.10846 29.1584L1.10995 29.1578L1.10995 19.8789L9.69777 24.5175L18.2856 19.8789L26.8749 24.5183L26.8734 24.519V33.7978L18.2856 29.1592Z" fill="#FCD581"/>
<path d="M35.4642 15.2497L35.4643 5.97246L44.0535 1.33301L44.0534 1.33454L52.6427 5.97397L44.0549 10.6126V19.8899L35.4656 24.5293L35.4657 24.5278L26.8764 19.8884L35.4642 15.2497Z" fill="#FCD581"/>
</g>
<defs>
<clipPath id="clip0_101_3277">
<rect width="52" height="54" fill="white" transform="translate(0.763672 0.865234)"/>
</clipPath>
</defs>
</svg>
