<svg width="135" height="131" viewBox="0 0 135 131" fill="none" xmlns="http://www.w3.org/2000/svg">
<line x1="68.8625" y1="65.8448" x2="133.863" y2="1.84477" stroke="#FCD581" stroke-width="3.24245"/>
<rect x="1.5" y="57.5" width="72" height="72" rx="18.5" fill="white" stroke="#FCD581" stroke-width="3"/>
<path d="M51.9286 91.8571H50.8571V87.5714H48.7143V91.8571H46.5714V87.5714H44.4286V91.8571H43.3571C43.073 91.8571 42.8005 91.97 42.5995 92.171C42.3986 92.3719 42.2857 92.6444 42.2857 92.9286V97.2143C42.2873 98.4487 42.7145 99.6447 43.4952 100.601C44.2758 101.557 45.3623 102.215 46.5714 102.463V105.786C46.5714 106.07 46.4585 106.342 46.2576 106.543C46.0567 106.744 45.7842 106.857 45.5 106.857H26.2143C25.9301 106.857 25.6576 106.744 25.4567 106.543C25.2557 106.342 25.1429 106.07 25.1429 105.786C25.1429 105.502 25.2557 105.229 25.4567 105.028C25.6576 104.827 25.9301 104.714 26.2143 104.714H31.5714C32.4239 104.714 33.2415 104.376 33.8443 103.773C34.4471 103.17 34.7857 102.352 34.7857 101.5C34.7857 100.648 34.4471 99.83 33.8443 99.2272C33.2415 98.6244 32.4239 98.2857 31.5714 98.2857H26.2143C25.9301 98.2857 25.6576 98.1728 25.4567 97.9719C25.2557 97.771 25.1429 97.4984 25.1429 97.2143C25.1429 96.9301 25.2557 96.6576 25.4567 96.4567C25.6576 96.2557 25.9301 96.1429 26.2143 96.1429H31.5714C32.4236 96.142 33.2407 95.8031 33.8433 95.2005C34.4459 94.5979 34.7849 93.7808 34.7857 92.9286V88.6429H35.8571C36.9933 88.6414 38.0826 88.1895 38.886 87.386C39.6895 86.5826 40.1414 85.4933 40.1429 84.3571V81.1429H36.9286C35.8316 81.1445 34.7774 81.5689 33.9854 82.3279C33.4303 81.3207 32.6154 80.4808 31.6256 79.8955C30.6357 79.3103 29.5071 79.001 28.3571 79H25.1429V82.2143C25.1448 83.9186 25.8228 85.5526 27.0279 86.7578C28.2331 87.9629 29.8671 88.6409 31.5714 88.6429H32.6429V92.9286C32.6429 93.2127 32.53 93.4853 32.329 93.6862C32.1281 93.8871 31.8556 94 31.5714 94H26.2143C25.3618 94 24.5442 94.3386 23.9414 94.9414C23.3386 95.5442 23 96.3618 23 97.2143C23 98.0668 23.3386 98.8843 23.9414 99.4871C24.5442 100.09 25.3618 100.429 26.2143 100.429H31.5714C31.8556 100.429 32.1281 100.541 32.329 100.742C32.53 100.943 32.6429 101.216 32.6429 101.5C32.6429 101.784 32.53 102.057 32.329 102.258C32.1281 102.459 31.8556 102.571 31.5714 102.571H26.2143C25.3618 102.571 24.5442 102.91 23.9414 103.513C23.3386 104.116 23 104.933 23 105.786C23 106.638 23.3386 107.456 23.9414 108.059C24.5442 108.661 25.3618 109 26.2143 109H45.5C46.3522 108.999 47.1693 108.66 47.7719 108.058C48.3745 107.455 48.7134 106.638 48.7143 105.786V102.463C49.9234 102.215 51.0099 101.557 51.7906 100.601C52.5712 99.6447 52.9984 98.4487 53 97.2143V92.9286C53 92.6444 52.8871 92.3719 52.6862 92.171C52.4853 91.97 52.2127 91.8571 51.9286 91.8571ZM34.7857 85.4286C34.7863 84.8604 35.0122 84.3157 35.414 83.914C35.8157 83.5122 36.3604 83.2863 36.9286 83.2857H38V84.3571C37.9994 84.9253 37.7735 85.47 37.3717 85.8717C36.97 86.2735 36.4253 86.4994 35.8571 86.5H34.7857V85.4286ZM31.5714 86.5C30.4352 86.4986 29.346 86.0466 28.5425 85.2432C27.7391 84.4398 27.2871 83.3505 27.2857 82.2143V81.1429H28.3571C29.4933 81.1443 30.5826 81.5963 31.386 82.3997C32.1895 83.2031 32.6414 84.2924 32.6429 85.4286V86.5H31.5714ZM50.8571 97.2143C50.8571 98.0668 50.5185 98.8843 49.9157 99.4871C49.3129 100.09 48.4953 100.429 47.6429 100.429C46.7904 100.429 45.9728 100.09 45.37 99.4871C44.7672 98.8843 44.4286 98.0668 44.4286 97.2143V94H50.8571V97.2143Z" fill="#FCD581"/>
</svg>
