<svg width="48" height="54" viewBox="0 0 48 54" fill="none" xmlns="http://www.w3.org/2000/svg">
<g clip-path="url(#clip0_348_1731)">
<path d="M35.8005 34.6068L43.6862 39.1597V48.2672L43.685 48.2662L35.7979 52.8196V43.714L27.9121 39.1612V30.0539L27.9134 30.0547L35.8004 25.5011L35.8005 34.6068Z" fill="#FCD581"/>
<path d="M16.0893 27.7704L8.20355 32.3233L0.316406 27.7696L0.317775 27.769L0.317776 18.6617L8.20355 23.2146L16.0893 18.6617L23.9765 23.2154L23.9751 23.216V32.3233L16.0893 27.7704Z" fill="#FCD581"/>
<path d="M31.8638 14.1185L31.8638 5.01277L39.7509 0.459106L39.7508 0.460613L47.6379 5.01425L39.7522 9.56712V18.6728L31.865 23.2264L31.8652 23.225L23.978 18.6713L31.8638 14.1185Z" fill="#FCD581"/>
</g>
<defs>
<clipPath id="clip0_348_1731">
<rect width="47.749" height="53.0014" fill="white"/>
</clipPath>
</defs>
</svg>
