<svg width="60" height="60" viewBox="0 0 60 60" fill="none" xmlns="http://www.w3.org/2000/svg">
<g clip-path="url(#clip0_348_1700)">
<rect width="60" height="60" fill="black"/>
<path d="M35.6665 28.2084C37.8107 28.2084 39.5286 26.4775 39.5286 24.3334C39.5286 22.1892 37.8107 20.4584 35.6665 20.4584C33.5223 20.4584 31.7915 22.1892 31.7915 24.3334C31.7915 26.4775 33.5223 28.2084 35.6665 28.2084ZM25.3332 28.2084C27.4773 28.2084 29.1953 26.4775 29.1953 24.3334C29.1953 22.1892 27.4773 20.4584 25.3332 20.4584C23.189 20.4584 21.4582 22.1892 21.4582 24.3334C21.4582 26.4775 23.189 28.2084 25.3332 28.2084ZM25.3332 30.7917C22.3236 30.7917 16.2915 32.303 16.2915 35.3125V38.5417H34.3748V35.3125C34.3748 32.303 28.3428 30.7917 25.3332 30.7917ZM35.6665 30.7917C35.2919 30.7917 34.8657 30.8175 34.4136 30.8563C35.9119 31.9413 36.9582 33.4009 36.9582 35.3125V38.5417H44.7082V35.3125C44.7082 32.303 38.6761 30.7917 35.6665 30.7917Z" fill="white"/>
</g>
<defs>
<clipPath id="clip0_348_1700">
<rect width="60" height="60" rx="30" fill="white"/>
</clipPath>
</defs>
</svg>
