<svg width="60" height="60" viewBox="0 0 60 60" fill="none" xmlns="http://www.w3.org/2000/svg">
<g clip-path="url(#clip0_348_1717)">
<rect width="60" height="60" fill="black"/>
<path d="M38.25 31.2916H37.3717L34.7883 33.8749H37.2554L39.5417 36.4583H21.4583L23.7575 33.8749H26.4054L23.8221 31.2916H22.75L18.875 35.1666V40.3333C18.875 41.7541 20.0246 42.9166 21.4454 42.9166H39.5417C40.2268 42.9166 40.8839 42.6444 41.3684 42.16C41.8528 41.6755 42.125 41.0184 42.125 40.3333V35.1666L38.25 31.2916ZM36.9583 24.7687L30.5646 31.1624L25.9921 26.5899L32.3858 20.1962L36.9583 24.7687ZM31.4817 17.4579L23.2537 25.6858C23.134 25.8053 23.039 25.9472 22.9742 26.1035C22.9094 26.2597 22.876 26.4272 22.876 26.5964C22.876 26.7656 22.9094 26.9331 22.9742 27.0893C23.039 27.2456 23.134 27.3875 23.2537 27.507L29.6475 33.9008C30.1512 34.4045 30.965 34.4045 31.4687 33.9008L39.6838 25.6858C39.8035 25.5663 39.8985 25.4243 39.9633 25.2681C40.0281 25.1118 40.0615 24.9443 40.0615 24.7752C40.0615 24.606 40.0281 24.4385 39.9633 24.2822C39.8985 24.126 39.8035 23.984 39.6838 23.8645L33.29 17.4708C33.1735 17.3488 33.0336 17.2516 32.8788 17.1847C32.7239 17.1179 32.5572 17.0828 32.3886 17.0816C32.2199 17.0804 32.0527 17.1131 31.8969 17.1777C31.7411 17.2423 31.5999 17.3376 31.4817 17.4579Z" fill="white"/>
</g>
<defs>
<clipPath id="clip0_348_1717">
<rect width="60" height="60" rx="30" fill="white"/>
</clipPath>
</defs>
</svg>
